M48
; DRILL file {KiCad 8.0.6} date 2025-07-07T10:53:37-0400
; FORMAT={-:-/ absolute / inch / decimal}
; #@! TF.CreationDate,2025-07-07T10:53:37-04:00
; #@! TF.GenerationSoftware,Kicad,Pcbnew,8.0.6
; #@! TF.FileFunction,Plated,1,2,PTH
FMAT,2
INCH
; #@! TA.AperFunction,Plated,PTH,ViaDrill
T1C0.0157
; #@! TA.AperFunction,Plated,PTH,ComponentDrill
T2C0.0315
; #@! TA.AperFunction,Plated,PTH,ComponentDrill
T3C0.0350
; #@! TA.AperFunction,Plated,PTH,ComponentDrill
T4C0.0394
; #@! TA.AperFunction,Plated,PTH,ComponentDrill
T5C0.0591
%
G90
G05
T1
X4.0143Y-3.6403
X4.2227Y-3.3768
X4.2227Y-3.4359
X4.2227Y-4.8768
X4.36Y-3.6407
X4.4353Y-4.1858
X4.7578Y-3.5348
X4.7667Y-4.1848
X4.8848Y-3.4836
X4.8916Y-5.0002
X4.9727Y-3.3768
X4.9727Y-3.4835
X4.9727Y-4.2286
X4.9727Y-4.8768
X5.079Y-5.2813
X5.1035Y-3.5352
X5.1853Y-4.1858
X5.4994Y-4.1647
X5.5254Y-3.5411
X5.634Y-3.4804
X5.6416Y-5.0002
X5.7227Y-3.3768
X5.7227Y-3.4817
X5.7227Y-4.8768
X5.7234Y-4.2308
X5.829Y-5.2813
X5.871Y-3.5415
X5.9353Y-4.1858
X6.2488Y-4.1671
X6.2494Y-3.5423
X6.3775Y-3.4773
X6.4385Y-5.0002
X6.4728Y-4.2332
X6.4771Y-3.3768
X6.4771Y-3.4769
X6.4852Y-4.8768
X6.5742Y-4.5541
X6.579Y-5.2813
X6.595Y-3.5426
X6.6852Y-4.1858
X6.7336Y-4.7785
X6.7823Y-4.3909
X6.8439Y-3.1426
X6.8524Y-4.3043
X6.8832Y-2.5816
X6.9521Y-3.5954
X6.9543Y-4.672
X6.96Y-2.5816
X6.96Y-2.7942
X6.96Y-2.9104
X7.0191Y-2.5816
X7.023Y-3.2529
X7.0328Y-3.7627
X7.0427Y-3.5639
X7.085Y-4.5417
X7.0957Y-3.3311
X7.0958Y-2.7942
X7.1549Y-2.5816
X7.2533Y-2.5659
X7.3417Y-3.3575
X7.3752Y-4.1713
X7.487Y-4.5201
X7.5268Y-3.2661
X7.6181Y-3.3846
T2
X4.704Y-3.0313
X4.704Y-3.3313
X4.704Y-4.5313
X4.704Y-4.8313
X4.7041Y-3.7814
X4.7041Y-4.0814
X5.454Y-3.0313
X5.454Y-3.3313
X5.454Y-4.5313
X5.454Y-4.8313
X5.4541Y-3.7814
X5.4541Y-4.0814
X6.204Y-3.0313
X6.204Y-3.3313
X6.204Y-4.5313
X6.204Y-4.8313
X6.2041Y-3.7814
X6.2041Y-4.0814
X6.932Y-3.773
X6.932Y-4.073
X6.9541Y-3.0314
X6.9541Y-3.3314
X6.9541Y-4.5313
X6.9541Y-4.8313
X7.7634Y-3.0311
X7.7634Y-3.3311
T3
X7.1042Y-3.6832
X7.1042Y-4.2832
X7.2042Y-3.6832
X7.2042Y-4.2832
X7.3042Y-3.6832
X7.3042Y-4.2832
X7.4042Y-3.6832
X7.4042Y-4.2832
X7.5042Y-3.6832
X7.5042Y-4.2832
X7.6042Y-3.6832
X7.6042Y-4.2832
X7.7042Y-3.6832
X7.7042Y-4.2832
T4
X7.3239Y-2.93
X7.3239Y-3.5009
X7.4223Y-3.5009
X7.5208Y-2.93
X7.5208Y-3.5009
T5
X4.1791Y-3.1189
X4.1791Y-3.8689
X4.1791Y-4.6189
X4.4291Y-3.0189
X4.4291Y-3.7689
X4.4291Y-4.5189
X4.9291Y-3.1189
X4.9291Y-3.8689
X4.9291Y-4.6189
X5.1791Y-3.0189
X5.1791Y-3.7689
X5.1791Y-4.5189
X5.6791Y-3.1189
X5.6791Y-3.8689
X5.6791Y-4.6189
X5.9291Y-3.0189
X5.9291Y-3.7689
X5.9291Y-4.5189
X6.4291Y-3.1189
X6.4291Y-3.8689
X6.4291Y-4.6189
X6.6791Y-3.0189
X6.6791Y-3.7689
X6.6791Y-4.5189
T5
G00X7.2019Y-3.2312
M15
G01X7.2019Y-3.18
M16
G05
G00X7.6428Y-3.2312
M15
G01X7.6428Y-3.18
M16
G05
M30
