%TF.GenerationSoftware,KiCad,Pcbnew,8.0.6*%
%TF.CreationDate,2025-07-07T10:53:34-04:00*%
%TF.ProjectId,tronzpad,74726f6e-7a70-4616-942e-6b696361645f,rev?*%
%TF.SameCoordinates,Original*%
%TF.FileFunction,Legend,Bot*%
%TF.FilePolarity,Positive*%
%FSLAX46Y46*%
G04 Gerber Fmt 4.6, Leading zero omitted, Abs format (unit mm)*
G04 Created by KiCad (PCBNEW 8.0.6) date 2025-07-07 10:53:34*
%MOMM*%
%LPD*%
G01*
G04 APERTURE LIST*
%ADD10C,0.150000*%
%ADD11C,0.120000*%
G04 APERTURE END LIST*
D10*
X196130180Y-98256077D02*
X195130180Y-97922744D01*
X195130180Y-97922744D02*
X196130180Y-97589411D01*
X195653990Y-96922744D02*
X195606371Y-96779887D01*
X195606371Y-96779887D02*
X195558752Y-96732268D01*
X195558752Y-96732268D02*
X195463514Y-96684649D01*
X195463514Y-96684649D02*
X195320657Y-96684649D01*
X195320657Y-96684649D02*
X195225419Y-96732268D01*
X195225419Y-96732268D02*
X195177800Y-96779887D01*
X195177800Y-96779887D02*
X195130180Y-96875125D01*
X195130180Y-96875125D02*
X195130180Y-97256077D01*
X195130180Y-97256077D02*
X196130180Y-97256077D01*
X196130180Y-97256077D02*
X196130180Y-96922744D01*
X196130180Y-96922744D02*
X196082561Y-96827506D01*
X196082561Y-96827506D02*
X196034942Y-96779887D01*
X196034942Y-96779887D02*
X195939704Y-96732268D01*
X195939704Y-96732268D02*
X195844466Y-96732268D01*
X195844466Y-96732268D02*
X195749228Y-96779887D01*
X195749228Y-96779887D02*
X195701609Y-96827506D01*
X195701609Y-96827506D02*
X195653990Y-96922744D01*
X195653990Y-96922744D02*
X195653990Y-97256077D01*
X196130180Y-96256077D02*
X195320657Y-96256077D01*
X195320657Y-96256077D02*
X195225419Y-96208458D01*
X195225419Y-96208458D02*
X195177800Y-96160839D01*
X195177800Y-96160839D02*
X195130180Y-96065601D01*
X195130180Y-96065601D02*
X195130180Y-95875125D01*
X195130180Y-95875125D02*
X195177800Y-95779887D01*
X195177800Y-95779887D02*
X195225419Y-95732268D01*
X195225419Y-95732268D02*
X195320657Y-95684649D01*
X195320657Y-95684649D02*
X196130180Y-95684649D01*
X195177800Y-95256077D02*
X195130180Y-95113220D01*
X195130180Y-95113220D02*
X195130180Y-94875125D01*
X195130180Y-94875125D02*
X195177800Y-94779887D01*
X195177800Y-94779887D02*
X195225419Y-94732268D01*
X195225419Y-94732268D02*
X195320657Y-94684649D01*
X195320657Y-94684649D02*
X195415895Y-94684649D01*
X195415895Y-94684649D02*
X195511133Y-94732268D01*
X195511133Y-94732268D02*
X195558752Y-94779887D01*
X195558752Y-94779887D02*
X195606371Y-94875125D01*
X195606371Y-94875125D02*
X195653990Y-95065601D01*
X195653990Y-95065601D02*
X195701609Y-95160839D01*
X195701609Y-95160839D02*
X195749228Y-95208458D01*
X195749228Y-95208458D02*
X195844466Y-95256077D01*
X195844466Y-95256077D02*
X195939704Y-95256077D01*
X195939704Y-95256077D02*
X196034942Y-95208458D01*
X196034942Y-95208458D02*
X196082561Y-95160839D01*
X196082561Y-95160839D02*
X196130180Y-95065601D01*
X196130180Y-95065601D02*
X196130180Y-94827506D01*
X196130180Y-94827506D02*
X196082561Y-94684649D01*
X199764819Y-79585714D02*
X198764819Y-79585714D01*
X198764819Y-79585714D02*
X198764819Y-79823809D01*
X198764819Y-79823809D02*
X198812438Y-79966666D01*
X198812438Y-79966666D02*
X198907676Y-80061904D01*
X198907676Y-80061904D02*
X199002914Y-80109523D01*
X199002914Y-80109523D02*
X199193390Y-80157142D01*
X199193390Y-80157142D02*
X199336247Y-80157142D01*
X199336247Y-80157142D02*
X199526723Y-80109523D01*
X199526723Y-80109523D02*
X199621961Y-80061904D01*
X199621961Y-80061904D02*
X199717200Y-79966666D01*
X199717200Y-79966666D02*
X199764819Y-79823809D01*
X199764819Y-79823809D02*
X199764819Y-79585714D01*
X198860057Y-80538095D02*
X198812438Y-80585714D01*
X198812438Y-80585714D02*
X198764819Y-80680952D01*
X198764819Y-80680952D02*
X198764819Y-80919047D01*
X198764819Y-80919047D02*
X198812438Y-81014285D01*
X198812438Y-81014285D02*
X198860057Y-81061904D01*
X198860057Y-81061904D02*
X198955295Y-81109523D01*
X198955295Y-81109523D02*
X199050533Y-81109523D01*
X199050533Y-81109523D02*
X199193390Y-81061904D01*
X199193390Y-81061904D02*
X199764819Y-80490476D01*
X199764819Y-80490476D02*
X199764819Y-81109523D01*
X199193390Y-81680952D02*
X199145771Y-81585714D01*
X199145771Y-81585714D02*
X199098152Y-81538095D01*
X199098152Y-81538095D02*
X199002914Y-81490476D01*
X199002914Y-81490476D02*
X198955295Y-81490476D01*
X198955295Y-81490476D02*
X198860057Y-81538095D01*
X198860057Y-81538095D02*
X198812438Y-81585714D01*
X198812438Y-81585714D02*
X198764819Y-81680952D01*
X198764819Y-81680952D02*
X198764819Y-81871428D01*
X198764819Y-81871428D02*
X198812438Y-81966666D01*
X198812438Y-81966666D02*
X198860057Y-82014285D01*
X198860057Y-82014285D02*
X198955295Y-82061904D01*
X198955295Y-82061904D02*
X199002914Y-82061904D01*
X199002914Y-82061904D02*
X199098152Y-82014285D01*
X199098152Y-82014285D02*
X199145771Y-81966666D01*
X199145771Y-81966666D02*
X199193390Y-81871428D01*
X199193390Y-81871428D02*
X199193390Y-81680952D01*
X199193390Y-81680952D02*
X199241009Y-81585714D01*
X199241009Y-81585714D02*
X199288628Y-81538095D01*
X199288628Y-81538095D02*
X199383866Y-81490476D01*
X199383866Y-81490476D02*
X199574342Y-81490476D01*
X199574342Y-81490476D02*
X199669580Y-81538095D01*
X199669580Y-81538095D02*
X199717200Y-81585714D01*
X199717200Y-81585714D02*
X199764819Y-81680952D01*
X199764819Y-81680952D02*
X199764819Y-81871428D01*
X199764819Y-81871428D02*
X199717200Y-81966666D01*
X199717200Y-81966666D02*
X199669580Y-82014285D01*
X199669580Y-82014285D02*
X199574342Y-82061904D01*
X199574342Y-82061904D02*
X199383866Y-82061904D01*
X199383866Y-82061904D02*
X199288628Y-82014285D01*
X199288628Y-82014285D02*
X199241009Y-81966666D01*
X199241009Y-81966666D02*
X199193390Y-81871428D01*
X199444819Y-84348095D02*
X198444819Y-84348095D01*
X199444819Y-84919523D02*
X198873390Y-84490952D01*
X198444819Y-84919523D02*
X199016247Y-84348095D01*
X160317790Y-117690981D02*
X159317790Y-117690981D01*
X159317790Y-117690981D02*
X159317790Y-117929076D01*
X159317790Y-117929076D02*
X159365409Y-118071933D01*
X159365409Y-118071933D02*
X159460647Y-118167171D01*
X159460647Y-118167171D02*
X159555885Y-118214790D01*
X159555885Y-118214790D02*
X159746361Y-118262409D01*
X159746361Y-118262409D02*
X159889218Y-118262409D01*
X159889218Y-118262409D02*
X160079694Y-118214790D01*
X160079694Y-118214790D02*
X160174932Y-118167171D01*
X160174932Y-118167171D02*
X160270171Y-118071933D01*
X160270171Y-118071933D02*
X160317790Y-117929076D01*
X160317790Y-117929076D02*
X160317790Y-117690981D01*
X160317790Y-119214790D02*
X160317790Y-118643362D01*
X160317790Y-118929076D02*
X159317790Y-118929076D01*
X159317790Y-118929076D02*
X159460647Y-118833838D01*
X159460647Y-118833838D02*
X159555885Y-118738600D01*
X159555885Y-118738600D02*
X159603504Y-118643362D01*
X160317790Y-120167171D02*
X160317790Y-119595743D01*
X160317790Y-119881457D02*
X159317790Y-119881457D01*
X159317790Y-119881457D02*
X159460647Y-119786219D01*
X159460647Y-119786219D02*
X159555885Y-119690981D01*
X159555885Y-119690981D02*
X159603504Y-119595743D01*
X159997790Y-122453362D02*
X158997790Y-122453362D01*
X159997790Y-123024790D02*
X159426361Y-122596219D01*
X158997790Y-123024790D02*
X159569218Y-122453362D01*
X122057190Y-80067972D02*
X121057190Y-80067972D01*
X121057190Y-80067972D02*
X121057190Y-80306067D01*
X121057190Y-80306067D02*
X121104809Y-80448924D01*
X121104809Y-80448924D02*
X121200047Y-80544162D01*
X121200047Y-80544162D02*
X121295285Y-80591781D01*
X121295285Y-80591781D02*
X121485761Y-80639400D01*
X121485761Y-80639400D02*
X121628618Y-80639400D01*
X121628618Y-80639400D02*
X121819094Y-80591781D01*
X121819094Y-80591781D02*
X121914332Y-80544162D01*
X121914332Y-80544162D02*
X122009571Y-80448924D01*
X122009571Y-80448924D02*
X122057190Y-80306067D01*
X122057190Y-80306067D02*
X122057190Y-80067972D01*
X122057190Y-81591781D02*
X122057190Y-81020353D01*
X122057190Y-81306067D02*
X121057190Y-81306067D01*
X121057190Y-81306067D02*
X121200047Y-81210829D01*
X121200047Y-81210829D02*
X121295285Y-81115591D01*
X121295285Y-81115591D02*
X121342904Y-81020353D01*
X121737190Y-84354162D02*
X120737190Y-84354162D01*
X121737190Y-84925590D02*
X121165761Y-84497019D01*
X120737190Y-84925590D02*
X121308618Y-84354162D01*
X160320190Y-99120172D02*
X159320190Y-99120172D01*
X159320190Y-99120172D02*
X159320190Y-99358267D01*
X159320190Y-99358267D02*
X159367809Y-99501124D01*
X159367809Y-99501124D02*
X159463047Y-99596362D01*
X159463047Y-99596362D02*
X159558285Y-99643981D01*
X159558285Y-99643981D02*
X159748761Y-99691600D01*
X159748761Y-99691600D02*
X159891618Y-99691600D01*
X159891618Y-99691600D02*
X160082094Y-99643981D01*
X160082094Y-99643981D02*
X160177332Y-99596362D01*
X160177332Y-99596362D02*
X160272571Y-99501124D01*
X160272571Y-99501124D02*
X160320190Y-99358267D01*
X160320190Y-99358267D02*
X160320190Y-99120172D01*
X159320190Y-100024934D02*
X159320190Y-100691600D01*
X159320190Y-100691600D02*
X160320190Y-100263029D01*
X160000190Y-103406362D02*
X159000190Y-103406362D01*
X160000190Y-103977790D02*
X159428761Y-103549219D01*
X159000190Y-103977790D02*
X159571618Y-103406362D01*
X141106790Y-80067972D02*
X140106790Y-80067972D01*
X140106790Y-80067972D02*
X140106790Y-80306067D01*
X140106790Y-80306067D02*
X140154409Y-80448924D01*
X140154409Y-80448924D02*
X140249647Y-80544162D01*
X140249647Y-80544162D02*
X140344885Y-80591781D01*
X140344885Y-80591781D02*
X140535361Y-80639400D01*
X140535361Y-80639400D02*
X140678218Y-80639400D01*
X140678218Y-80639400D02*
X140868694Y-80591781D01*
X140868694Y-80591781D02*
X140963932Y-80544162D01*
X140963932Y-80544162D02*
X141059171Y-80448924D01*
X141059171Y-80448924D02*
X141106790Y-80306067D01*
X141106790Y-80306067D02*
X141106790Y-80067972D01*
X140202028Y-81020353D02*
X140154409Y-81067972D01*
X140154409Y-81067972D02*
X140106790Y-81163210D01*
X140106790Y-81163210D02*
X140106790Y-81401305D01*
X140106790Y-81401305D02*
X140154409Y-81496543D01*
X140154409Y-81496543D02*
X140202028Y-81544162D01*
X140202028Y-81544162D02*
X140297266Y-81591781D01*
X140297266Y-81591781D02*
X140392504Y-81591781D01*
X140392504Y-81591781D02*
X140535361Y-81544162D01*
X140535361Y-81544162D02*
X141106790Y-80972734D01*
X141106790Y-80972734D02*
X141106790Y-81591781D01*
X140786790Y-84354162D02*
X139786790Y-84354162D01*
X140786790Y-84925590D02*
X140215361Y-84497019D01*
X139786790Y-84925590D02*
X140358218Y-84354162D01*
X160317790Y-80067972D02*
X159317790Y-80067972D01*
X159317790Y-80067972D02*
X159317790Y-80306067D01*
X159317790Y-80306067D02*
X159365409Y-80448924D01*
X159365409Y-80448924D02*
X159460647Y-80544162D01*
X159460647Y-80544162D02*
X159555885Y-80591781D01*
X159555885Y-80591781D02*
X159746361Y-80639400D01*
X159746361Y-80639400D02*
X159889218Y-80639400D01*
X159889218Y-80639400D02*
X160079694Y-80591781D01*
X160079694Y-80591781D02*
X160174932Y-80544162D01*
X160174932Y-80544162D02*
X160270171Y-80448924D01*
X160270171Y-80448924D02*
X160317790Y-80306067D01*
X160317790Y-80306067D02*
X160317790Y-80067972D01*
X159317790Y-80972734D02*
X159317790Y-81591781D01*
X159317790Y-81591781D02*
X159698742Y-81258448D01*
X159698742Y-81258448D02*
X159698742Y-81401305D01*
X159698742Y-81401305D02*
X159746361Y-81496543D01*
X159746361Y-81496543D02*
X159793980Y-81544162D01*
X159793980Y-81544162D02*
X159889218Y-81591781D01*
X159889218Y-81591781D02*
X160127313Y-81591781D01*
X160127313Y-81591781D02*
X160222551Y-81544162D01*
X160222551Y-81544162D02*
X160270171Y-81496543D01*
X160270171Y-81496543D02*
X160317790Y-81401305D01*
X160317790Y-81401305D02*
X160317790Y-81115591D01*
X160317790Y-81115591D02*
X160270171Y-81020353D01*
X160270171Y-81020353D02*
X160222551Y-80972734D01*
X159997790Y-84354162D02*
X158997790Y-84354162D01*
X159997790Y-84925590D02*
X159426361Y-84497019D01*
X158997790Y-84925590D02*
X159569218Y-84354162D01*
X141106790Y-117690981D02*
X140106790Y-117690981D01*
X140106790Y-117690981D02*
X140106790Y-117929076D01*
X140106790Y-117929076D02*
X140154409Y-118071933D01*
X140154409Y-118071933D02*
X140249647Y-118167171D01*
X140249647Y-118167171D02*
X140344885Y-118214790D01*
X140344885Y-118214790D02*
X140535361Y-118262409D01*
X140535361Y-118262409D02*
X140678218Y-118262409D01*
X140678218Y-118262409D02*
X140868694Y-118214790D01*
X140868694Y-118214790D02*
X140963932Y-118167171D01*
X140963932Y-118167171D02*
X141059171Y-118071933D01*
X141059171Y-118071933D02*
X141106790Y-117929076D01*
X141106790Y-117929076D02*
X141106790Y-117690981D01*
X141106790Y-119214790D02*
X141106790Y-118643362D01*
X141106790Y-118929076D02*
X140106790Y-118929076D01*
X140106790Y-118929076D02*
X140249647Y-118833838D01*
X140249647Y-118833838D02*
X140344885Y-118738600D01*
X140344885Y-118738600D02*
X140392504Y-118643362D01*
X140106790Y-119833838D02*
X140106790Y-119929076D01*
X140106790Y-119929076D02*
X140154409Y-120024314D01*
X140154409Y-120024314D02*
X140202028Y-120071933D01*
X140202028Y-120071933D02*
X140297266Y-120119552D01*
X140297266Y-120119552D02*
X140487742Y-120167171D01*
X140487742Y-120167171D02*
X140725837Y-120167171D01*
X140725837Y-120167171D02*
X140916313Y-120119552D01*
X140916313Y-120119552D02*
X141011551Y-120071933D01*
X141011551Y-120071933D02*
X141059171Y-120024314D01*
X141059171Y-120024314D02*
X141106790Y-119929076D01*
X141106790Y-119929076D02*
X141106790Y-119833838D01*
X141106790Y-119833838D02*
X141059171Y-119738600D01*
X141059171Y-119738600D02*
X141011551Y-119690981D01*
X141011551Y-119690981D02*
X140916313Y-119643362D01*
X140916313Y-119643362D02*
X140725837Y-119595743D01*
X140725837Y-119595743D02*
X140487742Y-119595743D01*
X140487742Y-119595743D02*
X140297266Y-119643362D01*
X140297266Y-119643362D02*
X140202028Y-119690981D01*
X140202028Y-119690981D02*
X140154409Y-119738600D01*
X140154409Y-119738600D02*
X140106790Y-119833838D01*
X140786790Y-122453362D02*
X139786790Y-122453362D01*
X140786790Y-123024790D02*
X140215361Y-122596219D01*
X139786790Y-123024790D02*
X140358218Y-122453362D01*
X122058790Y-99120172D02*
X121058790Y-99120172D01*
X121058790Y-99120172D02*
X121058790Y-99358267D01*
X121058790Y-99358267D02*
X121106409Y-99501124D01*
X121106409Y-99501124D02*
X121201647Y-99596362D01*
X121201647Y-99596362D02*
X121296885Y-99643981D01*
X121296885Y-99643981D02*
X121487361Y-99691600D01*
X121487361Y-99691600D02*
X121630218Y-99691600D01*
X121630218Y-99691600D02*
X121820694Y-99643981D01*
X121820694Y-99643981D02*
X121915932Y-99596362D01*
X121915932Y-99596362D02*
X122011171Y-99501124D01*
X122011171Y-99501124D02*
X122058790Y-99358267D01*
X122058790Y-99358267D02*
X122058790Y-99120172D01*
X121058790Y-100596362D02*
X121058790Y-100120172D01*
X121058790Y-100120172D02*
X121534980Y-100072553D01*
X121534980Y-100072553D02*
X121487361Y-100120172D01*
X121487361Y-100120172D02*
X121439742Y-100215410D01*
X121439742Y-100215410D02*
X121439742Y-100453505D01*
X121439742Y-100453505D02*
X121487361Y-100548743D01*
X121487361Y-100548743D02*
X121534980Y-100596362D01*
X121534980Y-100596362D02*
X121630218Y-100643981D01*
X121630218Y-100643981D02*
X121868313Y-100643981D01*
X121868313Y-100643981D02*
X121963551Y-100596362D01*
X121963551Y-100596362D02*
X122011171Y-100548743D01*
X122011171Y-100548743D02*
X122058790Y-100453505D01*
X122058790Y-100453505D02*
X122058790Y-100215410D01*
X122058790Y-100215410D02*
X122011171Y-100120172D01*
X122011171Y-100120172D02*
X121963551Y-100072553D01*
X121738790Y-103406362D02*
X120738790Y-103406362D01*
X121738790Y-103977790D02*
X121167361Y-103549219D01*
X120738790Y-103977790D02*
X121310218Y-103406362D01*
X122057190Y-118167172D02*
X121057190Y-118167172D01*
X121057190Y-118167172D02*
X121057190Y-118405267D01*
X121057190Y-118405267D02*
X121104809Y-118548124D01*
X121104809Y-118548124D02*
X121200047Y-118643362D01*
X121200047Y-118643362D02*
X121295285Y-118690981D01*
X121295285Y-118690981D02*
X121485761Y-118738600D01*
X121485761Y-118738600D02*
X121628618Y-118738600D01*
X121628618Y-118738600D02*
X121819094Y-118690981D01*
X121819094Y-118690981D02*
X121914332Y-118643362D01*
X121914332Y-118643362D02*
X122009571Y-118548124D01*
X122009571Y-118548124D02*
X122057190Y-118405267D01*
X122057190Y-118405267D02*
X122057190Y-118167172D01*
X122057190Y-119214791D02*
X122057190Y-119405267D01*
X122057190Y-119405267D02*
X122009571Y-119500505D01*
X122009571Y-119500505D02*
X121961951Y-119548124D01*
X121961951Y-119548124D02*
X121819094Y-119643362D01*
X121819094Y-119643362D02*
X121628618Y-119690981D01*
X121628618Y-119690981D02*
X121247666Y-119690981D01*
X121247666Y-119690981D02*
X121152428Y-119643362D01*
X121152428Y-119643362D02*
X121104809Y-119595743D01*
X121104809Y-119595743D02*
X121057190Y-119500505D01*
X121057190Y-119500505D02*
X121057190Y-119310029D01*
X121057190Y-119310029D02*
X121104809Y-119214791D01*
X121104809Y-119214791D02*
X121152428Y-119167172D01*
X121152428Y-119167172D02*
X121247666Y-119119553D01*
X121247666Y-119119553D02*
X121485761Y-119119553D01*
X121485761Y-119119553D02*
X121580999Y-119167172D01*
X121580999Y-119167172D02*
X121628618Y-119214791D01*
X121628618Y-119214791D02*
X121676237Y-119310029D01*
X121676237Y-119310029D02*
X121676237Y-119500505D01*
X121676237Y-119500505D02*
X121628618Y-119595743D01*
X121628618Y-119595743D02*
X121580999Y-119643362D01*
X121580999Y-119643362D02*
X121485761Y-119690981D01*
X121737190Y-122453362D02*
X120737190Y-122453362D01*
X121737190Y-123024790D02*
X121165761Y-122596219D01*
X120737190Y-123024790D02*
X121308618Y-122453362D01*
X141108790Y-99120172D02*
X140108790Y-99120172D01*
X140108790Y-99120172D02*
X140108790Y-99358267D01*
X140108790Y-99358267D02*
X140156409Y-99501124D01*
X140156409Y-99501124D02*
X140251647Y-99596362D01*
X140251647Y-99596362D02*
X140346885Y-99643981D01*
X140346885Y-99643981D02*
X140537361Y-99691600D01*
X140537361Y-99691600D02*
X140680218Y-99691600D01*
X140680218Y-99691600D02*
X140870694Y-99643981D01*
X140870694Y-99643981D02*
X140965932Y-99596362D01*
X140965932Y-99596362D02*
X141061171Y-99501124D01*
X141061171Y-99501124D02*
X141108790Y-99358267D01*
X141108790Y-99358267D02*
X141108790Y-99120172D01*
X140108790Y-100548743D02*
X140108790Y-100358267D01*
X140108790Y-100358267D02*
X140156409Y-100263029D01*
X140156409Y-100263029D02*
X140204028Y-100215410D01*
X140204028Y-100215410D02*
X140346885Y-100120172D01*
X140346885Y-100120172D02*
X140537361Y-100072553D01*
X140537361Y-100072553D02*
X140918313Y-100072553D01*
X140918313Y-100072553D02*
X141013551Y-100120172D01*
X141013551Y-100120172D02*
X141061171Y-100167791D01*
X141061171Y-100167791D02*
X141108790Y-100263029D01*
X141108790Y-100263029D02*
X141108790Y-100453505D01*
X141108790Y-100453505D02*
X141061171Y-100548743D01*
X141061171Y-100548743D02*
X141013551Y-100596362D01*
X141013551Y-100596362D02*
X140918313Y-100643981D01*
X140918313Y-100643981D02*
X140680218Y-100643981D01*
X140680218Y-100643981D02*
X140584980Y-100596362D01*
X140584980Y-100596362D02*
X140537361Y-100548743D01*
X140537361Y-100548743D02*
X140489742Y-100453505D01*
X140489742Y-100453505D02*
X140489742Y-100263029D01*
X140489742Y-100263029D02*
X140537361Y-100167791D01*
X140537361Y-100167791D02*
X140584980Y-100120172D01*
X140584980Y-100120172D02*
X140680218Y-100072553D01*
X140788790Y-103406362D02*
X139788790Y-103406362D01*
X140788790Y-103977790D02*
X140217361Y-103549219D01*
X139788790Y-103977790D02*
X140360218Y-103406362D01*
X179208790Y-80070172D02*
X178208790Y-80070172D01*
X178208790Y-80070172D02*
X178208790Y-80308267D01*
X178208790Y-80308267D02*
X178256409Y-80451124D01*
X178256409Y-80451124D02*
X178351647Y-80546362D01*
X178351647Y-80546362D02*
X178446885Y-80593981D01*
X178446885Y-80593981D02*
X178637361Y-80641600D01*
X178637361Y-80641600D02*
X178780218Y-80641600D01*
X178780218Y-80641600D02*
X178970694Y-80593981D01*
X178970694Y-80593981D02*
X179065932Y-80546362D01*
X179065932Y-80546362D02*
X179161171Y-80451124D01*
X179161171Y-80451124D02*
X179208790Y-80308267D01*
X179208790Y-80308267D02*
X179208790Y-80070172D01*
X178542123Y-81498743D02*
X179208790Y-81498743D01*
X178161171Y-81260648D02*
X178875456Y-81022553D01*
X178875456Y-81022553D02*
X178875456Y-81641600D01*
X178888790Y-84356362D02*
X177888790Y-84356362D01*
X178888790Y-84927790D02*
X178317361Y-84499219D01*
X177888790Y-84927790D02*
X178460218Y-84356362D01*
X179208790Y-117690981D02*
X178208790Y-117690981D01*
X178208790Y-117690981D02*
X178208790Y-117929076D01*
X178208790Y-117929076D02*
X178256409Y-118071933D01*
X178256409Y-118071933D02*
X178351647Y-118167171D01*
X178351647Y-118167171D02*
X178446885Y-118214790D01*
X178446885Y-118214790D02*
X178637361Y-118262409D01*
X178637361Y-118262409D02*
X178780218Y-118262409D01*
X178780218Y-118262409D02*
X178970694Y-118214790D01*
X178970694Y-118214790D02*
X179065932Y-118167171D01*
X179065932Y-118167171D02*
X179161171Y-118071933D01*
X179161171Y-118071933D02*
X179208790Y-117929076D01*
X179208790Y-117929076D02*
X179208790Y-117690981D01*
X179208790Y-119214790D02*
X179208790Y-118643362D01*
X179208790Y-118929076D02*
X178208790Y-118929076D01*
X178208790Y-118929076D02*
X178351647Y-118833838D01*
X178351647Y-118833838D02*
X178446885Y-118738600D01*
X178446885Y-118738600D02*
X178494504Y-118643362D01*
X178304028Y-119595743D02*
X178256409Y-119643362D01*
X178256409Y-119643362D02*
X178208790Y-119738600D01*
X178208790Y-119738600D02*
X178208790Y-119976695D01*
X178208790Y-119976695D02*
X178256409Y-120071933D01*
X178256409Y-120071933D02*
X178304028Y-120119552D01*
X178304028Y-120119552D02*
X178399266Y-120167171D01*
X178399266Y-120167171D02*
X178494504Y-120167171D01*
X178494504Y-120167171D02*
X178637361Y-120119552D01*
X178637361Y-120119552D02*
X179208790Y-119548124D01*
X179208790Y-119548124D02*
X179208790Y-120167171D01*
X178888790Y-122453362D02*
X177888790Y-122453362D01*
X178888790Y-123024790D02*
X178317361Y-122596219D01*
X177888790Y-123024790D02*
X178460218Y-122453362D01*
X178648790Y-98905172D02*
X177648790Y-98905172D01*
X177648790Y-98905172D02*
X177648790Y-99143267D01*
X177648790Y-99143267D02*
X177696409Y-99286124D01*
X177696409Y-99286124D02*
X177791647Y-99381362D01*
X177791647Y-99381362D02*
X177886885Y-99428981D01*
X177886885Y-99428981D02*
X178077361Y-99476600D01*
X178077361Y-99476600D02*
X178220218Y-99476600D01*
X178220218Y-99476600D02*
X178410694Y-99428981D01*
X178410694Y-99428981D02*
X178505932Y-99381362D01*
X178505932Y-99381362D02*
X178601171Y-99286124D01*
X178601171Y-99286124D02*
X178648790Y-99143267D01*
X178648790Y-99143267D02*
X178648790Y-98905172D01*
X178077361Y-100048029D02*
X178029742Y-99952791D01*
X178029742Y-99952791D02*
X177982123Y-99905172D01*
X177982123Y-99905172D02*
X177886885Y-99857553D01*
X177886885Y-99857553D02*
X177839266Y-99857553D01*
X177839266Y-99857553D02*
X177744028Y-99905172D01*
X177744028Y-99905172D02*
X177696409Y-99952791D01*
X177696409Y-99952791D02*
X177648790Y-100048029D01*
X177648790Y-100048029D02*
X177648790Y-100238505D01*
X177648790Y-100238505D02*
X177696409Y-100333743D01*
X177696409Y-100333743D02*
X177744028Y-100381362D01*
X177744028Y-100381362D02*
X177839266Y-100428981D01*
X177839266Y-100428981D02*
X177886885Y-100428981D01*
X177886885Y-100428981D02*
X177982123Y-100381362D01*
X177982123Y-100381362D02*
X178029742Y-100333743D01*
X178029742Y-100333743D02*
X178077361Y-100238505D01*
X178077361Y-100238505D02*
X178077361Y-100048029D01*
X178077361Y-100048029D02*
X178124980Y-99952791D01*
X178124980Y-99952791D02*
X178172599Y-99905172D01*
X178172599Y-99905172D02*
X178267837Y-99857553D01*
X178267837Y-99857553D02*
X178458313Y-99857553D01*
X178458313Y-99857553D02*
X178553551Y-99905172D01*
X178553551Y-99905172D02*
X178601171Y-99952791D01*
X178601171Y-99952791D02*
X178648790Y-100048029D01*
X178648790Y-100048029D02*
X178648790Y-100238505D01*
X178648790Y-100238505D02*
X178601171Y-100333743D01*
X178601171Y-100333743D02*
X178553551Y-100381362D01*
X178553551Y-100381362D02*
X178458313Y-100428981D01*
X178458313Y-100428981D02*
X178267837Y-100428981D01*
X178267837Y-100428981D02*
X178172599Y-100381362D01*
X178172599Y-100381362D02*
X178124980Y-100333743D01*
X178124980Y-100333743D02*
X178077361Y-100238505D01*
X178328790Y-103191362D02*
X177328790Y-103191362D01*
X178328790Y-103762790D02*
X177757361Y-103334219D01*
X177328790Y-103762790D02*
X177900218Y-103191362D01*
D11*
%TO.C,D28*%
X196070000Y-78680000D02*
X196070000Y-82920000D01*
X196070000Y-82080000D02*
X198310000Y-82080000D01*
X196070000Y-82200000D02*
X198310000Y-82200000D01*
X196070000Y-82320000D02*
X198310000Y-82320000D01*
X196070000Y-82920000D02*
X198310000Y-82920000D01*
X197190000Y-78680000D02*
X197190000Y-78029999D01*
X197190000Y-82920001D02*
X197190000Y-83570000D01*
X198310000Y-78680000D02*
X196070000Y-78680000D01*
X198310000Y-82920000D02*
X198310000Y-78680000D01*
%TO.C,D11*%
X156461571Y-116785267D02*
X156461571Y-121025267D01*
X156461571Y-120185267D02*
X158701571Y-120185267D01*
X156461571Y-120305267D02*
X158701571Y-120305267D01*
X156461571Y-120425267D02*
X158701571Y-120425267D01*
X156461571Y-121025267D02*
X158701571Y-121025267D01*
X157581571Y-116785267D02*
X157581571Y-116135266D01*
X157581571Y-121025268D02*
X157581571Y-121675267D01*
X158701571Y-116785267D02*
X156461571Y-116785267D01*
X158701571Y-121025267D02*
X158701571Y-116785267D01*
%TO.C,D1*%
X118362371Y-78686067D02*
X118362371Y-82926067D01*
X118362371Y-82086067D02*
X120602371Y-82086067D01*
X118362371Y-82206067D02*
X120602371Y-82206067D01*
X118362371Y-82326067D02*
X120602371Y-82326067D01*
X118362371Y-82926067D02*
X120602371Y-82926067D01*
X119482371Y-78686067D02*
X119482371Y-78036066D01*
X119482371Y-82926068D02*
X119482371Y-83576067D01*
X120602371Y-78686067D02*
X118362371Y-78686067D01*
X120602371Y-82926067D02*
X120602371Y-78686067D01*
%TO.C,D7*%
X156463971Y-97738267D02*
X156463971Y-101978267D01*
X156463971Y-101138267D02*
X158703971Y-101138267D01*
X156463971Y-101258267D02*
X158703971Y-101258267D01*
X156463971Y-101378267D02*
X158703971Y-101378267D01*
X156463971Y-101978267D02*
X158703971Y-101978267D01*
X157583971Y-97738267D02*
X157583971Y-97088266D01*
X157583971Y-101978268D02*
X157583971Y-102628267D01*
X158703971Y-97738267D02*
X156463971Y-97738267D01*
X158703971Y-101978267D02*
X158703971Y-97738267D01*
%TO.C,D2*%
X137411971Y-78686067D02*
X137411971Y-82926067D01*
X137411971Y-82086067D02*
X139651971Y-82086067D01*
X137411971Y-82206067D02*
X139651971Y-82206067D01*
X137411971Y-82326067D02*
X139651971Y-82326067D01*
X137411971Y-82926067D02*
X139651971Y-82926067D01*
X138531971Y-78686067D02*
X138531971Y-78036066D01*
X138531971Y-82926068D02*
X138531971Y-83576067D01*
X139651971Y-78686067D02*
X137411971Y-78686067D01*
X139651971Y-82926067D02*
X139651971Y-78686067D01*
%TO.C,D3*%
X156461571Y-78686067D02*
X156461571Y-82926067D01*
X156461571Y-82086067D02*
X158701571Y-82086067D01*
X156461571Y-82206067D02*
X158701571Y-82206067D01*
X156461571Y-82326067D02*
X158701571Y-82326067D01*
X156461571Y-82926067D02*
X158701571Y-82926067D01*
X157581571Y-78686067D02*
X157581571Y-78036066D01*
X157581571Y-82926068D02*
X157581571Y-83576067D01*
X158701571Y-78686067D02*
X156461571Y-78686067D01*
X158701571Y-82926067D02*
X158701571Y-78686067D01*
%TO.C,D10*%
X137411971Y-116785267D02*
X137411971Y-121025267D01*
X137411971Y-120185267D02*
X139651971Y-120185267D01*
X137411971Y-120305267D02*
X139651971Y-120305267D01*
X137411971Y-120425267D02*
X139651971Y-120425267D01*
X137411971Y-121025267D02*
X139651971Y-121025267D01*
X138531971Y-116785267D02*
X138531971Y-116135266D01*
X138531971Y-121025268D02*
X138531971Y-121675267D01*
X139651971Y-116785267D02*
X137411971Y-116785267D01*
X139651971Y-121025267D02*
X139651971Y-116785267D01*
%TO.C,D5*%
X118363971Y-97738267D02*
X118363971Y-101978267D01*
X118363971Y-101138267D02*
X120603971Y-101138267D01*
X118363971Y-101258267D02*
X120603971Y-101258267D01*
X118363971Y-101378267D02*
X120603971Y-101378267D01*
X118363971Y-101978267D02*
X120603971Y-101978267D01*
X119483971Y-97738267D02*
X119483971Y-97088266D01*
X119483971Y-101978268D02*
X119483971Y-102628267D01*
X120603971Y-97738267D02*
X118363971Y-97738267D01*
X120603971Y-101978267D02*
X120603971Y-97738267D01*
%TO.C,D9*%
X118362371Y-116785267D02*
X118362371Y-121025267D01*
X118362371Y-120185267D02*
X120602371Y-120185267D01*
X118362371Y-120305267D02*
X120602371Y-120305267D01*
X118362371Y-120425267D02*
X120602371Y-120425267D01*
X118362371Y-121025267D02*
X120602371Y-121025267D01*
X119482371Y-116785267D02*
X119482371Y-116135266D01*
X119482371Y-121025268D02*
X119482371Y-121675267D01*
X120602371Y-116785267D02*
X118362371Y-116785267D01*
X120602371Y-121025267D02*
X120602371Y-116785267D01*
%TO.C,D6*%
X137413971Y-97738267D02*
X137413971Y-101978267D01*
X137413971Y-101138267D02*
X139653971Y-101138267D01*
X137413971Y-101258267D02*
X139653971Y-101258267D01*
X137413971Y-101378267D02*
X139653971Y-101378267D01*
X137413971Y-101978267D02*
X139653971Y-101978267D01*
X138533971Y-97738267D02*
X138533971Y-97088266D01*
X138533971Y-101978268D02*
X138533971Y-102628267D01*
X139653971Y-97738267D02*
X137413971Y-97738267D01*
X139653971Y-101978267D02*
X139653971Y-97738267D01*
%TO.C,D4*%
X175513971Y-78688267D02*
X175513971Y-82928267D01*
X175513971Y-82088267D02*
X177753971Y-82088267D01*
X175513971Y-82208267D02*
X177753971Y-82208267D01*
X175513971Y-82328267D02*
X177753971Y-82328267D01*
X175513971Y-82928267D02*
X177753971Y-82928267D01*
X176633971Y-78688267D02*
X176633971Y-78038266D01*
X176633971Y-82928268D02*
X176633971Y-83578267D01*
X177753971Y-78688267D02*
X175513971Y-78688267D01*
X177753971Y-82928267D02*
X177753971Y-78688267D01*
%TO.C,D12*%
X175513971Y-116785267D02*
X175513971Y-121025267D01*
X175513971Y-120185267D02*
X177753971Y-120185267D01*
X175513971Y-120305267D02*
X177753971Y-120305267D01*
X175513971Y-120425267D02*
X177753971Y-120425267D01*
X175513971Y-121025267D02*
X177753971Y-121025267D01*
X176633971Y-116785267D02*
X176633971Y-116135266D01*
X176633971Y-121025268D02*
X176633971Y-121675267D01*
X177753971Y-116785267D02*
X175513971Y-116785267D01*
X177753971Y-121025267D02*
X177753971Y-116785267D01*
%TO.C,D8*%
X174953971Y-97523267D02*
X174953971Y-101763267D01*
X174953971Y-100923267D02*
X177193971Y-100923267D01*
X174953971Y-101043267D02*
X177193971Y-101043267D01*
X174953971Y-101163267D02*
X177193971Y-101163267D01*
X174953971Y-101763267D02*
X177193971Y-101763267D01*
X176073971Y-97523267D02*
X176073971Y-96873266D01*
X176073971Y-101763268D02*
X176073971Y-102413267D01*
X177193971Y-97523267D02*
X174953971Y-97523267D01*
X177193971Y-101763267D02*
X177193971Y-97523267D01*
%TD*%
M02*
