M48
; DRILL file {KiCad 8.0.6} date 2025-07-07T10:53:37-0400
; FORMAT={-:-/ absolute / inch / decimal}
; #@! TF.CreationDate,2025-07-07T10:53:37-04:00
; #@! TF.GenerationSoftware,Kicad,Pcbnew,8.0.6
; #@! TF.FileFunction,NonPlated,1,2,NPTH
FMAT,2
INCH
; #@! TA.AperFunction,NonPlated,NPTH,ComponentDrill
T1C0.0669
; #@! TA.AperFunction,NonPlated,NPTH,ComponentDrill
T2C0.1260
; #@! TA.AperFunction,NonPlated,NPTH,ComponentDrill
T3C0.1575
%
G90
G05
T1
X4.1291Y-3.2189
X4.1291Y-3.9689
X4.1291Y-4.7189
X4.5291Y-3.2189
X4.5291Y-3.9689
X4.5291Y-4.7189
X4.8791Y-3.2189
X4.8791Y-3.9689
X4.8791Y-4.7189
X5.2791Y-3.2189
X5.2791Y-3.9689
X5.2791Y-4.7189
X5.6291Y-3.2189
X5.6291Y-3.9689
X5.6291Y-4.7189
X6.0291Y-3.2189
X6.0291Y-3.9689
X6.0291Y-4.7189
X6.3791Y-3.2189
X6.3791Y-3.9689
X6.3791Y-4.7189
X6.7791Y-3.2189
X6.7791Y-3.9689
X6.7791Y-4.7189
T2
X4.0773Y-5.2204
X4.0777Y-2.6994
X7.6539Y-5.2202
X7.6543Y-2.7
T3
X4.3291Y-3.2189
X4.3291Y-3.9689
X4.3291Y-4.7189
X5.0791Y-3.2189
X5.0791Y-3.9689
X5.0791Y-4.7189
X5.8291Y-3.2189
X5.8291Y-3.9689
X5.8291Y-4.7189
X6.5791Y-3.2189
X6.5791Y-3.9689
X6.5791Y-4.7189
M30
