%TF.GenerationSoftware,KiCad,Pcbnew,8.0.6*%
%TF.CreationDate,2025-07-07T10:53:34-04:00*%
%TF.ProjectId,tronzpad,74726f6e-7a70-4616-942e-6b696361645f,rev?*%
%TF.SameCoordinates,Original*%
%TF.FileFunction,Soldermask,Top*%
%TF.FilePolarity,Negative*%
%FSLAX46Y46*%
G04 Gerber Fmt 4.6, Leading zero omitted, Abs format (unit mm)*
G04 Created by KiCad (PCBNEW 8.0.6) date 2025-07-07 10:53:34*
%MOMM*%
%LPD*%
G01*
G04 APERTURE LIST*
G04 Aperture macros list*
%AMRoundRect*
0 Rectangle with rounded corners*
0 $1 Rounding radius*
0 $2 $3 $4 $5 $6 $7 $8 $9 X,Y pos of 4 corners*
0 Add a 4 corners polygon primitive as box body*
4,1,4,$2,$3,$4,$5,$6,$7,$8,$9,$2,$3,0*
0 Add four circle primitives for the rounded corners*
1,1,$1+$1,$2,$3*
1,1,$1+$1,$4,$5*
1,1,$1+$1,$6,$7*
1,1,$1+$1,$8,$9*
0 Add four rect primitives between the rounded corners*
20,1,$1+$1,$2,$3,$4,$5,0*
20,1,$1+$1,$4,$5,$6,$7,0*
20,1,$1+$1,$6,$7,$8,$9,0*
20,1,$1+$1,$8,$9,$2,$3,0*%
G04 Aperture macros list end*
%ADD10C,1.700000*%
%ADD11C,4.000000*%
%ADD12C,2.200000*%
%ADD13RoundRect,0.152400X0.609600X-1.063600X0.609600X1.063600X-0.609600X1.063600X-0.609600X-1.063600X0*%
%ADD14C,1.524000*%
%ADD15RoundRect,0.152400X-0.609600X1.063600X-0.609600X-1.063600X0.609600X-1.063600X0.609600X1.063600X0*%
%ADD16C,3.200000*%
%ADD17R,2.000000X2.000000*%
%ADD18C,2.000000*%
%ADD19R,2.000000X3.200000*%
%ADD20R,1.600000X1.600000*%
%ADD21O,1.600000X1.600000*%
G04 APERTURE END LIST*
D10*
%TO.C,S10*%
X123928971Y-119860767D03*
D11*
X129008971Y-119860767D03*
D10*
X134088971Y-119860767D03*
D12*
X131548971Y-114780767D03*
X125198971Y-117320767D03*
%TD*%
D13*
%TO.C,U1*%
X195685471Y-92718267D03*
D14*
X195685471Y-93553267D03*
D13*
X193145471Y-92718267D03*
D14*
X193145471Y-93553267D03*
D13*
X190605471Y-92718267D03*
D14*
X190605471Y-93553267D03*
D13*
X188065471Y-92718267D03*
D14*
X188065471Y-93553267D03*
D13*
X185525471Y-92718267D03*
D14*
X185525471Y-93553267D03*
D13*
X182985471Y-92718267D03*
D14*
X182985471Y-93553267D03*
D13*
X180445471Y-92718267D03*
D14*
X180445471Y-93553267D03*
X180445471Y-108793267D03*
D15*
X180445471Y-109628267D03*
D14*
X182985471Y-108793267D03*
D15*
X182985471Y-109628267D03*
D14*
X185525471Y-108793267D03*
D15*
X185525471Y-109628267D03*
D14*
X188065471Y-108793267D03*
D15*
X188065471Y-109628267D03*
D14*
X190605471Y-108793267D03*
D15*
X190605471Y-109628267D03*
D14*
X193145471Y-108793267D03*
D15*
X193145471Y-109628267D03*
D14*
X195685471Y-108793267D03*
D15*
X195685471Y-109628267D03*
%TD*%
D10*
%TO.C,S5*%
X104878971Y-100810767D03*
D11*
X109958971Y-100810767D03*
D10*
X115038971Y-100810767D03*
D12*
X112498971Y-95730767D03*
X106148971Y-98270767D03*
%TD*%
D10*
%TO.C,S2*%
X123928971Y-81760767D03*
D11*
X129008971Y-81760767D03*
D10*
X134088971Y-81760767D03*
D12*
X131548971Y-76680767D03*
X125198971Y-79220767D03*
%TD*%
D10*
%TO.C,S3*%
X142978971Y-81760767D03*
D11*
X148058971Y-81760767D03*
D10*
X153138971Y-81760767D03*
D12*
X150598971Y-76680767D03*
X144248971Y-79220767D03*
%TD*%
D10*
%TO.C,S9*%
X104878971Y-119860767D03*
D11*
X109958971Y-119860767D03*
D10*
X115038971Y-119860767D03*
D12*
X112498971Y-114780767D03*
X106148971Y-117320767D03*
%TD*%
D10*
%TO.C,S1*%
X104878971Y-81760767D03*
D11*
X109958971Y-81760767D03*
D10*
X115038971Y-81760767D03*
D12*
X112498971Y-76680767D03*
X106148971Y-79220767D03*
%TD*%
D10*
%TO.C,S4*%
X162028971Y-81760767D03*
D11*
X167108971Y-81760767D03*
D10*
X172188971Y-81760767D03*
D12*
X169648971Y-76680767D03*
X163298971Y-79220767D03*
%TD*%
D10*
%TO.C,S7*%
X142978971Y-100810767D03*
D11*
X148058971Y-100810767D03*
D10*
X153138971Y-100810767D03*
D12*
X150598971Y-95730767D03*
X144248971Y-98270767D03*
%TD*%
D16*
%TO.C,H2*%
X194419831Y-68580027D03*
%TD*%
%TO.C,H4*%
X194409657Y-132594127D03*
%TD*%
D10*
%TO.C,S6*%
X123928971Y-100810767D03*
D11*
X129008971Y-100810767D03*
D10*
X134088971Y-100810767D03*
D12*
X131548971Y-95730767D03*
X125198971Y-98270767D03*
%TD*%
D16*
%TO.C,H3*%
X103563061Y-132599003D03*
%TD*%
D17*
%TO.C,SW1*%
X186027571Y-88923267D03*
D18*
X191027571Y-88923267D03*
X188527571Y-88923267D03*
D19*
X182927571Y-81423267D03*
X194127571Y-81423267D03*
D18*
X191027571Y-74423267D03*
X186027571Y-74423267D03*
%TD*%
D10*
%TO.C,S11*%
X142978971Y-119860767D03*
D11*
X148058971Y-119860767D03*
D10*
X153138971Y-119860767D03*
D12*
X150598971Y-114780767D03*
X144248971Y-117320767D03*
%TD*%
D10*
%TO.C,S12*%
X162028971Y-119860767D03*
D11*
X167108971Y-119860767D03*
D10*
X172188971Y-119860767D03*
D12*
X169648971Y-114780767D03*
X163298971Y-117320767D03*
%TD*%
D16*
%TO.C,H1*%
X103573231Y-68564907D03*
%TD*%
D10*
%TO.C,S8*%
X162028971Y-100810767D03*
D11*
X167108971Y-100810767D03*
D10*
X172188971Y-100810767D03*
D12*
X169648971Y-95730767D03*
X163298971Y-98270767D03*
%TD*%
D20*
%TO.C,D28*%
X197190000Y-84610000D03*
D21*
X197190000Y-76990000D03*
%TD*%
D20*
%TO.C,D11*%
X157581571Y-122715267D03*
D21*
X157581571Y-115095267D03*
%TD*%
D20*
%TO.C,D1*%
X119482371Y-84616067D03*
D21*
X119482371Y-76996067D03*
%TD*%
D20*
%TO.C,D7*%
X157583971Y-103668267D03*
D21*
X157583971Y-96048267D03*
%TD*%
D20*
%TO.C,D2*%
X138531971Y-84616067D03*
D21*
X138531971Y-76996067D03*
%TD*%
D20*
%TO.C,D3*%
X157581571Y-84616067D03*
D21*
X157581571Y-76996067D03*
%TD*%
D20*
%TO.C,D10*%
X138531971Y-122715267D03*
D21*
X138531971Y-115095267D03*
%TD*%
D20*
%TO.C,D5*%
X119483971Y-103668267D03*
D21*
X119483971Y-96048267D03*
%TD*%
D20*
%TO.C,D9*%
X119482371Y-122715267D03*
D21*
X119482371Y-115095267D03*
%TD*%
D20*
%TO.C,D6*%
X138533971Y-103668267D03*
D21*
X138533971Y-96048267D03*
%TD*%
D20*
%TO.C,D4*%
X176633971Y-84618267D03*
D21*
X176633971Y-76998267D03*
%TD*%
D20*
%TO.C,D12*%
X176633971Y-122715267D03*
D21*
X176633971Y-115095267D03*
%TD*%
D20*
%TO.C,D8*%
X176073971Y-103453267D03*
D21*
X176073971Y-95833267D03*
%TD*%
M02*
