M48
; DRILL file {KiCad 8.0.6} date 2025-07-03T10:24:40-0400
; FORMAT={-:-/ absolute / metric / decimal}
; #@! TF.CreationDate,2025-07-03T10:24:40-04:00
; #@! TF.GenerationSoftware,Kicad,Pcbnew,8.0.6
; #@! TF.FileFunction,Plated,1,2,PTH
FMAT,2
METRIC
; #@! TA.AperFunction,Plated,PTH,ViaDrill
T1C0.400
; #@! TA.AperFunction,Plated,PTH,ComponentDrill
T2C0.800
; #@! TA.AperFunction,Plated,PTH,ComponentDrill
T3C0.889
; #@! TA.AperFunction,Plated,PTH,ComponentDrill
T4C1.000
; #@! TA.AperFunction,Plated,PTH,ComponentDrill
T5C1.500
%
G90
G05
T1
X101.964Y-92.463
X107.258Y-85.771
X107.258Y-87.271
X107.258Y-123.87
X110.744Y-92.473
X112.658Y-106.32
X120.849Y-89.783
X121.074Y-106.293
X124.074Y-88.483
X124.246Y-127.005
X126.307Y-85.771
X126.307Y-88.48
X126.307Y-107.406
X126.307Y-123.87
X129.007Y-134.145
X129.629Y-89.793
X131.707Y-106.32
X139.684Y-105.783
X140.344Y-89.943
X143.104Y-88.403
X143.296Y-127.005
X145.357Y-85.771
X145.357Y-88.436
X145.357Y-123.87
X145.374Y-107.463
X148.057Y-134.145
X149.124Y-89.953
X150.757Y-106.32
X158.719Y-105.843
X158.734Y-89.973
X161.989Y-88.323
X163.537Y-127.005
X164.409Y-107.523
X164.519Y-85.771
X164.519Y-88.313
X164.724Y-123.87
X166.984Y-115.673
X167.106Y-134.145
X167.514Y-89.983
X169.805Y-106.32
X171.034Y-121.373
X173.834Y-79.823
X174.834Y-65.573
X176.584Y-91.323
X176.784Y-65.573
X176.784Y-70.973
X176.784Y-73.923
X178.284Y-65.573
X178.384Y-82.623
X178.634Y-95.573
X178.884Y-90.523
X180.234Y-70.973
X181.154Y-101.863
X181.734Y-65.573
X184.234Y-65.173
X193.984Y-97.573
X196.684Y-103.023
T2
X119.482Y-76.996
X119.482Y-84.616
X119.482Y-115.095
X119.482Y-122.715
X119.484Y-96.048
X119.484Y-103.668
X138.532Y-76.996
X138.532Y-84.616
X138.532Y-115.095
X138.532Y-122.715
X138.534Y-96.048
X138.534Y-103.668
X157.582Y-76.996
X157.582Y-84.616
X157.582Y-115.095
X157.582Y-122.715
X157.584Y-96.048
X157.584Y-103.668
X176.074Y-95.833
X176.074Y-103.453
X176.634Y-76.998
X176.634Y-84.618
X176.634Y-115.095
X176.634Y-122.715
T3
X180.445Y-93.553
X180.445Y-108.793
X182.985Y-93.553
X182.985Y-108.793
X185.525Y-93.553
X185.525Y-108.793
X188.065Y-93.553
X188.065Y-108.793
X190.605Y-93.553
X190.605Y-108.793
X193.145Y-93.553
X193.145Y-108.793
X195.685Y-93.553
X195.685Y-108.793
T4
X186.028Y-74.423
X186.028Y-88.923
X188.528Y-88.923
X191.028Y-74.423
X191.028Y-88.923
T5
X106.149Y-79.221
X106.149Y-98.271
X106.149Y-117.321
X112.499Y-76.681
X112.499Y-95.731
X112.499Y-114.781
X125.199Y-79.221
X125.199Y-98.271
X125.199Y-117.321
X131.549Y-76.681
X131.549Y-95.731
X131.549Y-114.781
X144.249Y-79.221
X144.249Y-98.271
X144.249Y-117.321
X150.599Y-76.681
X150.599Y-95.731
X150.599Y-114.781
X163.299Y-79.221
X163.299Y-98.271
X163.299Y-117.321
X169.649Y-76.681
X169.649Y-95.731
X169.649Y-114.781
T5
G00X182.928Y-82.073
M15
G01X182.928Y-80.773
M16
G05
G00X194.128Y-82.073
M15
G01X194.128Y-80.773
M16
G05
M30
