%TF.GenerationSoftware,KiCad,Pcbnew,8.0.6*%
%TF.CreationDate,2025-07-02T19:59:32-04:00*%
%TF.ProjectId,tronzpad,74726f6e-7a70-4616-942e-6b696361645f,rev?*%
%TF.SameCoordinates,Original*%
%TF.FileFunction,Profile,NP*%
%FSLAX46Y46*%
G04 Gerber Fmt 4.6, Leading zero omitted, Abs format (unit mm)*
G04 Created by KiCad (PCBNEW 8.0.6) date 2025-07-02 19:59:32*
%MOMM*%
%LPD*%
G01*
G04 APERTURE LIST*
%TA.AperFunction,Profile*%
%ADD10C,0.100000*%
%TD*%
%TA.AperFunction,Profile*%
%ADD11C,0.120000*%
%TD*%
G04 APERTURE END LIST*
D10*
X99105885Y-68564907D02*
X99116054Y-68564907D01*
X194402747Y-137059437D02*
X103563061Y-137059437D01*
X194419831Y-64107731D02*
G75*
G02*
X198876964Y-68571809I-31J-4457169D01*
G01*
X99116054Y-68564907D02*
G75*
G02*
X103580132Y-64107759I4457146J7D01*
G01*
X103580132Y-64107731D02*
X194419831Y-64107731D01*
X198874965Y-132586000D02*
G75*
G02*
X194402747Y-137059367I-4465265J-8100D01*
G01*
X198874965Y-68586928D02*
X198874965Y-68571809D01*
X99105885Y-132592106D02*
X99105885Y-68564907D01*
X103563061Y-137056184D02*
G75*
G02*
X99105921Y-132592106I39J4457184D01*
G01*
X198874965Y-132586000D02*
X198874965Y-68586928D01*
D11*
%TO.C,D18*%
X108257571Y-104070467D02*
X108257571Y-107070467D01*
X108257571Y-107070467D02*
X111657571Y-107070467D01*
X111657571Y-104070467D02*
X108257571Y-104070467D01*
X111657571Y-107070467D02*
X111657571Y-104070467D01*
%TO.C,D24*%
X172583971Y-66573267D02*
X172583971Y-69973267D01*
X172583971Y-69973267D02*
X175583971Y-69973267D01*
X175583971Y-66573267D02*
X172583971Y-66573267D01*
X175583971Y-69973267D02*
X175583971Y-66573267D01*
%TO.C,D20*%
X127307171Y-123120067D02*
X127307171Y-126120067D01*
X127307171Y-126120067D02*
X130707171Y-126120067D01*
X130707171Y-123120067D02*
X127307171Y-123120067D01*
X130707171Y-126120067D02*
X130707171Y-123120067D01*
%TO.C,D13*%
X127307171Y-85020867D02*
X127307171Y-88020867D01*
X127307171Y-88020867D02*
X130707171Y-88020867D01*
X130707171Y-85020867D02*
X127307171Y-85020867D01*
X130707171Y-88020867D02*
X130707171Y-85020867D01*
%TO.C,D15*%
X165518971Y-85020867D02*
X165518971Y-88020867D01*
X165518971Y-88020867D02*
X168918971Y-88020867D01*
X168918971Y-85020867D02*
X165518971Y-85020867D01*
X168918971Y-88020867D02*
X168918971Y-85020867D01*
%TO.C,D19*%
X108257571Y-123120067D02*
X108257571Y-126120067D01*
X108257571Y-126120067D02*
X111657571Y-126120067D01*
X111657571Y-123120067D02*
X108257571Y-123120067D01*
X111657571Y-126120067D02*
X111657571Y-123120067D01*
%TO.C,D27*%
X179483971Y-66573267D02*
X179483971Y-69973267D01*
X179483971Y-69973267D02*
X182483971Y-69973267D01*
X182483971Y-66573267D02*
X179483971Y-66573267D01*
X182483971Y-69973267D02*
X182483971Y-66573267D01*
%TO.C,D14*%
X146356771Y-85020867D02*
X146356771Y-88020867D01*
X146356771Y-88020867D02*
X149756771Y-88020867D01*
X149756771Y-85020867D02*
X146356771Y-85020867D01*
X149756771Y-88020867D02*
X149756771Y-85020867D01*
%TO.C,D21*%
X165404971Y-104070467D02*
X165404971Y-107070467D01*
X165404971Y-107070467D02*
X168804971Y-107070467D01*
X168804971Y-104070467D02*
X165404971Y-104070467D01*
X168804971Y-107070467D02*
X168804971Y-104070467D01*
%TO.C,D25*%
X108257571Y-85020867D02*
X108257571Y-88020867D01*
X108257571Y-88020867D02*
X111657571Y-88020867D01*
X111657571Y-85020867D02*
X108257571Y-85020867D01*
X111657571Y-88020867D02*
X111657571Y-85020867D01*
%TO.C,D26*%
X176033971Y-66573267D02*
X176033971Y-69973267D01*
X176033971Y-69973267D02*
X179033971Y-69973267D01*
X179033971Y-66573267D02*
X176033971Y-66573267D01*
X179033971Y-69973267D02*
X179033971Y-66573267D01*
%TO.C,D23*%
X165723771Y-123120067D02*
X165723771Y-126120067D01*
X165723771Y-126120067D02*
X169123771Y-126120067D01*
X169123771Y-123120067D02*
X165723771Y-123120067D01*
X169123771Y-126120067D02*
X169123771Y-123120067D01*
%TO.C,D17*%
X127307171Y-104070467D02*
X127307171Y-107070467D01*
X127307171Y-107070467D02*
X130707171Y-107070467D01*
X130707171Y-104070467D02*
X127307171Y-104070467D01*
X130707171Y-107070467D02*
X130707171Y-104070467D01*
%TO.C,D22*%
X146356771Y-123120067D02*
X146356771Y-126120067D01*
X146356771Y-126120067D02*
X149756771Y-126120067D01*
X149756771Y-123120067D02*
X146356771Y-123120067D01*
X149756771Y-126120067D02*
X149756771Y-123120067D01*
%TO.C,D16*%
X146356771Y-104070467D02*
X146356771Y-107070467D01*
X146356771Y-107070467D02*
X149756771Y-107070467D01*
X149756771Y-104070467D02*
X146356771Y-104070467D01*
X149756771Y-107070467D02*
X149756771Y-104070467D01*
%TD*%
M02*
