M48
; DRILL file {KiCad 8.0.6} date 2025-07-03T10:24:40-0400
; FORMAT={-:-/ absolute / metric / decimal}
; #@! TF.CreationDate,2025-07-03T10:24:40-04:00
; #@! TF.GenerationSoftware,Kicad,Pcbnew,8.0.6
; #@! TF.FileFunction,NonPlated,1,2,NPTH
FMAT,2
METRIC
; #@! TA.AperFunction,NonPlated,NPTH,ComponentDrill
T1C1.700
; #@! TA.AperFunction,NonPlated,NPTH,ComponentDrill
T2C3.200
; #@! TA.AperFunction,NonPlated,NPTH,ComponentDrill
T3C4.000
%
G90
G05
T1
X104.879Y-81.761
X104.879Y-100.811
X104.879Y-119.861
X115.039Y-81.761
X115.039Y-100.811
X115.039Y-119.861
X123.929Y-81.761
X123.929Y-100.811
X123.929Y-119.861
X134.089Y-81.761
X134.089Y-100.811
X134.089Y-119.861
X142.979Y-81.761
X142.979Y-100.811
X142.979Y-119.861
X153.139Y-81.761
X153.139Y-100.811
X153.139Y-119.861
X162.029Y-81.761
X162.029Y-100.811
X162.029Y-119.861
X172.189Y-81.761
X172.189Y-100.811
X172.189Y-119.861
T2
X103.563Y-132.599
X103.573Y-68.565
X194.41Y-132.594
X194.42Y-68.58
T3
X109.959Y-81.761
X109.959Y-100.811
X109.959Y-119.861
X129.009Y-81.761
X129.009Y-100.811
X129.009Y-119.861
X148.059Y-81.761
X148.059Y-100.811
X148.059Y-119.861
X167.109Y-81.761
X167.109Y-100.811
X167.109Y-119.861
M30
