%TF.GenerationSoftware,KiCad,Pcbnew,8.0.6*%
%TF.CreationDate,2025-07-03T10:23:52-04:00*%
%TF.ProjectId,tronzpad,74726f6e-7a70-4616-942e-6b696361645f,rev?*%
%TF.SameCoordinates,Original*%
%TF.FileFunction,Legend,Bot*%
%TF.FilePolarity,Positive*%
%FSLAX46Y46*%
G04 Gerber Fmt 4.6, Leading zero omitted, Abs format (unit mm)*
G04 Created by KiCad (PCBNEW 8.0.6) date 2025-07-03 10:23:52*
%MOMM*%
%LPD*%
G01*
G04 APERTURE LIST*
%ADD10C,0.150000*%
%ADD11C,0.101600*%
%ADD12C,0.120000*%
%ADD13C,0.127000*%
%ADD14C,0.100000*%
%ADD15C,0.504000*%
G04 APERTURE END LIST*
D10*
X160317790Y-117690981D02*
X159317790Y-117690981D01*
X159317790Y-117690981D02*
X159317790Y-117929076D01*
X159317790Y-117929076D02*
X159365409Y-118071933D01*
X159365409Y-118071933D02*
X159460647Y-118167171D01*
X159460647Y-118167171D02*
X159555885Y-118214790D01*
X159555885Y-118214790D02*
X159746361Y-118262409D01*
X159746361Y-118262409D02*
X159889218Y-118262409D01*
X159889218Y-118262409D02*
X160079694Y-118214790D01*
X160079694Y-118214790D02*
X160174932Y-118167171D01*
X160174932Y-118167171D02*
X160270171Y-118071933D01*
X160270171Y-118071933D02*
X160317790Y-117929076D01*
X160317790Y-117929076D02*
X160317790Y-117690981D01*
X160317790Y-119214790D02*
X160317790Y-118643362D01*
X160317790Y-118929076D02*
X159317790Y-118929076D01*
X159317790Y-118929076D02*
X159460647Y-118833838D01*
X159460647Y-118833838D02*
X159555885Y-118738600D01*
X159555885Y-118738600D02*
X159603504Y-118643362D01*
X160317790Y-120167171D02*
X160317790Y-119595743D01*
X160317790Y-119881457D02*
X159317790Y-119881457D01*
X159317790Y-119881457D02*
X159460647Y-119786219D01*
X159460647Y-119786219D02*
X159555885Y-119690981D01*
X159555885Y-119690981D02*
X159603504Y-119595743D01*
X159997790Y-122453362D02*
X158997790Y-122453362D01*
X159997790Y-123024790D02*
X159426361Y-122596219D01*
X158997790Y-123024790D02*
X159569218Y-122453362D01*
X122057190Y-80067972D02*
X121057190Y-80067972D01*
X121057190Y-80067972D02*
X121057190Y-80306067D01*
X121057190Y-80306067D02*
X121104809Y-80448924D01*
X121104809Y-80448924D02*
X121200047Y-80544162D01*
X121200047Y-80544162D02*
X121295285Y-80591781D01*
X121295285Y-80591781D02*
X121485761Y-80639400D01*
X121485761Y-80639400D02*
X121628618Y-80639400D01*
X121628618Y-80639400D02*
X121819094Y-80591781D01*
X121819094Y-80591781D02*
X121914332Y-80544162D01*
X121914332Y-80544162D02*
X122009571Y-80448924D01*
X122009571Y-80448924D02*
X122057190Y-80306067D01*
X122057190Y-80306067D02*
X122057190Y-80067972D01*
X122057190Y-81591781D02*
X122057190Y-81020353D01*
X122057190Y-81306067D02*
X121057190Y-81306067D01*
X121057190Y-81306067D02*
X121200047Y-81210829D01*
X121200047Y-81210829D02*
X121295285Y-81115591D01*
X121295285Y-81115591D02*
X121342904Y-81020353D01*
X121737190Y-84354162D02*
X120737190Y-84354162D01*
X121737190Y-84925590D02*
X121165761Y-84497019D01*
X120737190Y-84925590D02*
X121308618Y-84354162D01*
X160320190Y-99120172D02*
X159320190Y-99120172D01*
X159320190Y-99120172D02*
X159320190Y-99358267D01*
X159320190Y-99358267D02*
X159367809Y-99501124D01*
X159367809Y-99501124D02*
X159463047Y-99596362D01*
X159463047Y-99596362D02*
X159558285Y-99643981D01*
X159558285Y-99643981D02*
X159748761Y-99691600D01*
X159748761Y-99691600D02*
X159891618Y-99691600D01*
X159891618Y-99691600D02*
X160082094Y-99643981D01*
X160082094Y-99643981D02*
X160177332Y-99596362D01*
X160177332Y-99596362D02*
X160272571Y-99501124D01*
X160272571Y-99501124D02*
X160320190Y-99358267D01*
X160320190Y-99358267D02*
X160320190Y-99120172D01*
X159320190Y-100024934D02*
X159320190Y-100691600D01*
X159320190Y-100691600D02*
X160320190Y-100263029D01*
X160000190Y-103406362D02*
X159000190Y-103406362D01*
X160000190Y-103977790D02*
X159428761Y-103549219D01*
X159000190Y-103977790D02*
X159571618Y-103406362D01*
D11*
X188380491Y-98457076D02*
X187866444Y-98457076D01*
X187866444Y-98457076D02*
X187805968Y-98426838D01*
X187805968Y-98426838D02*
X187775730Y-98396600D01*
X187775730Y-98396600D02*
X187745491Y-98336124D01*
X187745491Y-98336124D02*
X187745491Y-98215171D01*
X187745491Y-98215171D02*
X187775730Y-98154695D01*
X187775730Y-98154695D02*
X187805968Y-98124457D01*
X187805968Y-98124457D02*
X187866444Y-98094219D01*
X187866444Y-98094219D02*
X188380491Y-98094219D01*
X187745491Y-97459219D02*
X187745491Y-97822076D01*
X187745491Y-97640648D02*
X188380491Y-97640648D01*
X188380491Y-97640648D02*
X188289777Y-97701124D01*
X188289777Y-97701124D02*
X188229301Y-97761600D01*
X188229301Y-97761600D02*
X188199063Y-97822076D01*
D10*
X141106790Y-80067972D02*
X140106790Y-80067972D01*
X140106790Y-80067972D02*
X140106790Y-80306067D01*
X140106790Y-80306067D02*
X140154409Y-80448924D01*
X140154409Y-80448924D02*
X140249647Y-80544162D01*
X140249647Y-80544162D02*
X140344885Y-80591781D01*
X140344885Y-80591781D02*
X140535361Y-80639400D01*
X140535361Y-80639400D02*
X140678218Y-80639400D01*
X140678218Y-80639400D02*
X140868694Y-80591781D01*
X140868694Y-80591781D02*
X140963932Y-80544162D01*
X140963932Y-80544162D02*
X141059171Y-80448924D01*
X141059171Y-80448924D02*
X141106790Y-80306067D01*
X141106790Y-80306067D02*
X141106790Y-80067972D01*
X140202028Y-81020353D02*
X140154409Y-81067972D01*
X140154409Y-81067972D02*
X140106790Y-81163210D01*
X140106790Y-81163210D02*
X140106790Y-81401305D01*
X140106790Y-81401305D02*
X140154409Y-81496543D01*
X140154409Y-81496543D02*
X140202028Y-81544162D01*
X140202028Y-81544162D02*
X140297266Y-81591781D01*
X140297266Y-81591781D02*
X140392504Y-81591781D01*
X140392504Y-81591781D02*
X140535361Y-81544162D01*
X140535361Y-81544162D02*
X141106790Y-80972734D01*
X141106790Y-80972734D02*
X141106790Y-81591781D01*
X140786790Y-84354162D02*
X139786790Y-84354162D01*
X140786790Y-84925590D02*
X140215361Y-84497019D01*
X139786790Y-84925590D02*
X140358218Y-84354162D01*
X160317790Y-80067972D02*
X159317790Y-80067972D01*
X159317790Y-80067972D02*
X159317790Y-80306067D01*
X159317790Y-80306067D02*
X159365409Y-80448924D01*
X159365409Y-80448924D02*
X159460647Y-80544162D01*
X159460647Y-80544162D02*
X159555885Y-80591781D01*
X159555885Y-80591781D02*
X159746361Y-80639400D01*
X159746361Y-80639400D02*
X159889218Y-80639400D01*
X159889218Y-80639400D02*
X160079694Y-80591781D01*
X160079694Y-80591781D02*
X160174932Y-80544162D01*
X160174932Y-80544162D02*
X160270171Y-80448924D01*
X160270171Y-80448924D02*
X160317790Y-80306067D01*
X160317790Y-80306067D02*
X160317790Y-80067972D01*
X159317790Y-80972734D02*
X159317790Y-81591781D01*
X159317790Y-81591781D02*
X159698742Y-81258448D01*
X159698742Y-81258448D02*
X159698742Y-81401305D01*
X159698742Y-81401305D02*
X159746361Y-81496543D01*
X159746361Y-81496543D02*
X159793980Y-81544162D01*
X159793980Y-81544162D02*
X159889218Y-81591781D01*
X159889218Y-81591781D02*
X160127313Y-81591781D01*
X160127313Y-81591781D02*
X160222551Y-81544162D01*
X160222551Y-81544162D02*
X160270171Y-81496543D01*
X160270171Y-81496543D02*
X160317790Y-81401305D01*
X160317790Y-81401305D02*
X160317790Y-81115591D01*
X160317790Y-81115591D02*
X160270171Y-81020353D01*
X160270171Y-81020353D02*
X160222551Y-80972734D01*
X159997790Y-84354162D02*
X158997790Y-84354162D01*
X159997790Y-84925590D02*
X159426361Y-84497019D01*
X158997790Y-84925590D02*
X159569218Y-84354162D01*
X141106790Y-117690981D02*
X140106790Y-117690981D01*
X140106790Y-117690981D02*
X140106790Y-117929076D01*
X140106790Y-117929076D02*
X140154409Y-118071933D01*
X140154409Y-118071933D02*
X140249647Y-118167171D01*
X140249647Y-118167171D02*
X140344885Y-118214790D01*
X140344885Y-118214790D02*
X140535361Y-118262409D01*
X140535361Y-118262409D02*
X140678218Y-118262409D01*
X140678218Y-118262409D02*
X140868694Y-118214790D01*
X140868694Y-118214790D02*
X140963932Y-118167171D01*
X140963932Y-118167171D02*
X141059171Y-118071933D01*
X141059171Y-118071933D02*
X141106790Y-117929076D01*
X141106790Y-117929076D02*
X141106790Y-117690981D01*
X141106790Y-119214790D02*
X141106790Y-118643362D01*
X141106790Y-118929076D02*
X140106790Y-118929076D01*
X140106790Y-118929076D02*
X140249647Y-118833838D01*
X140249647Y-118833838D02*
X140344885Y-118738600D01*
X140344885Y-118738600D02*
X140392504Y-118643362D01*
X140106790Y-119833838D02*
X140106790Y-119929076D01*
X140106790Y-119929076D02*
X140154409Y-120024314D01*
X140154409Y-120024314D02*
X140202028Y-120071933D01*
X140202028Y-120071933D02*
X140297266Y-120119552D01*
X140297266Y-120119552D02*
X140487742Y-120167171D01*
X140487742Y-120167171D02*
X140725837Y-120167171D01*
X140725837Y-120167171D02*
X140916313Y-120119552D01*
X140916313Y-120119552D02*
X141011551Y-120071933D01*
X141011551Y-120071933D02*
X141059171Y-120024314D01*
X141059171Y-120024314D02*
X141106790Y-119929076D01*
X141106790Y-119929076D02*
X141106790Y-119833838D01*
X141106790Y-119833838D02*
X141059171Y-119738600D01*
X141059171Y-119738600D02*
X141011551Y-119690981D01*
X141011551Y-119690981D02*
X140916313Y-119643362D01*
X140916313Y-119643362D02*
X140725837Y-119595743D01*
X140725837Y-119595743D02*
X140487742Y-119595743D01*
X140487742Y-119595743D02*
X140297266Y-119643362D01*
X140297266Y-119643362D02*
X140202028Y-119690981D01*
X140202028Y-119690981D02*
X140154409Y-119738600D01*
X140154409Y-119738600D02*
X140106790Y-119833838D01*
X140786790Y-122453362D02*
X139786790Y-122453362D01*
X140786790Y-123024790D02*
X140215361Y-122596219D01*
X139786790Y-123024790D02*
X140358218Y-122453362D01*
X122058790Y-99120172D02*
X121058790Y-99120172D01*
X121058790Y-99120172D02*
X121058790Y-99358267D01*
X121058790Y-99358267D02*
X121106409Y-99501124D01*
X121106409Y-99501124D02*
X121201647Y-99596362D01*
X121201647Y-99596362D02*
X121296885Y-99643981D01*
X121296885Y-99643981D02*
X121487361Y-99691600D01*
X121487361Y-99691600D02*
X121630218Y-99691600D01*
X121630218Y-99691600D02*
X121820694Y-99643981D01*
X121820694Y-99643981D02*
X121915932Y-99596362D01*
X121915932Y-99596362D02*
X122011171Y-99501124D01*
X122011171Y-99501124D02*
X122058790Y-99358267D01*
X122058790Y-99358267D02*
X122058790Y-99120172D01*
X121058790Y-100596362D02*
X121058790Y-100120172D01*
X121058790Y-100120172D02*
X121534980Y-100072553D01*
X121534980Y-100072553D02*
X121487361Y-100120172D01*
X121487361Y-100120172D02*
X121439742Y-100215410D01*
X121439742Y-100215410D02*
X121439742Y-100453505D01*
X121439742Y-100453505D02*
X121487361Y-100548743D01*
X121487361Y-100548743D02*
X121534980Y-100596362D01*
X121534980Y-100596362D02*
X121630218Y-100643981D01*
X121630218Y-100643981D02*
X121868313Y-100643981D01*
X121868313Y-100643981D02*
X121963551Y-100596362D01*
X121963551Y-100596362D02*
X122011171Y-100548743D01*
X122011171Y-100548743D02*
X122058790Y-100453505D01*
X122058790Y-100453505D02*
X122058790Y-100215410D01*
X122058790Y-100215410D02*
X122011171Y-100120172D01*
X122011171Y-100120172D02*
X121963551Y-100072553D01*
X121738790Y-103406362D02*
X120738790Y-103406362D01*
X121738790Y-103977790D02*
X121167361Y-103549219D01*
X120738790Y-103977790D02*
X121310218Y-103406362D01*
X122057190Y-118167172D02*
X121057190Y-118167172D01*
X121057190Y-118167172D02*
X121057190Y-118405267D01*
X121057190Y-118405267D02*
X121104809Y-118548124D01*
X121104809Y-118548124D02*
X121200047Y-118643362D01*
X121200047Y-118643362D02*
X121295285Y-118690981D01*
X121295285Y-118690981D02*
X121485761Y-118738600D01*
X121485761Y-118738600D02*
X121628618Y-118738600D01*
X121628618Y-118738600D02*
X121819094Y-118690981D01*
X121819094Y-118690981D02*
X121914332Y-118643362D01*
X121914332Y-118643362D02*
X122009571Y-118548124D01*
X122009571Y-118548124D02*
X122057190Y-118405267D01*
X122057190Y-118405267D02*
X122057190Y-118167172D01*
X122057190Y-119214791D02*
X122057190Y-119405267D01*
X122057190Y-119405267D02*
X122009571Y-119500505D01*
X122009571Y-119500505D02*
X121961951Y-119548124D01*
X121961951Y-119548124D02*
X121819094Y-119643362D01*
X121819094Y-119643362D02*
X121628618Y-119690981D01*
X121628618Y-119690981D02*
X121247666Y-119690981D01*
X121247666Y-119690981D02*
X121152428Y-119643362D01*
X121152428Y-119643362D02*
X121104809Y-119595743D01*
X121104809Y-119595743D02*
X121057190Y-119500505D01*
X121057190Y-119500505D02*
X121057190Y-119310029D01*
X121057190Y-119310029D02*
X121104809Y-119214791D01*
X121104809Y-119214791D02*
X121152428Y-119167172D01*
X121152428Y-119167172D02*
X121247666Y-119119553D01*
X121247666Y-119119553D02*
X121485761Y-119119553D01*
X121485761Y-119119553D02*
X121580999Y-119167172D01*
X121580999Y-119167172D02*
X121628618Y-119214791D01*
X121628618Y-119214791D02*
X121676237Y-119310029D01*
X121676237Y-119310029D02*
X121676237Y-119500505D01*
X121676237Y-119500505D02*
X121628618Y-119595743D01*
X121628618Y-119595743D02*
X121580999Y-119643362D01*
X121580999Y-119643362D02*
X121485761Y-119690981D01*
X121737190Y-122453362D02*
X120737190Y-122453362D01*
X121737190Y-123024790D02*
X121165761Y-122596219D01*
X120737190Y-123024790D02*
X121308618Y-122453362D01*
X141108790Y-99120172D02*
X140108790Y-99120172D01*
X140108790Y-99120172D02*
X140108790Y-99358267D01*
X140108790Y-99358267D02*
X140156409Y-99501124D01*
X140156409Y-99501124D02*
X140251647Y-99596362D01*
X140251647Y-99596362D02*
X140346885Y-99643981D01*
X140346885Y-99643981D02*
X140537361Y-99691600D01*
X140537361Y-99691600D02*
X140680218Y-99691600D01*
X140680218Y-99691600D02*
X140870694Y-99643981D01*
X140870694Y-99643981D02*
X140965932Y-99596362D01*
X140965932Y-99596362D02*
X141061171Y-99501124D01*
X141061171Y-99501124D02*
X141108790Y-99358267D01*
X141108790Y-99358267D02*
X141108790Y-99120172D01*
X140108790Y-100548743D02*
X140108790Y-100358267D01*
X140108790Y-100358267D02*
X140156409Y-100263029D01*
X140156409Y-100263029D02*
X140204028Y-100215410D01*
X140204028Y-100215410D02*
X140346885Y-100120172D01*
X140346885Y-100120172D02*
X140537361Y-100072553D01*
X140537361Y-100072553D02*
X140918313Y-100072553D01*
X140918313Y-100072553D02*
X141013551Y-100120172D01*
X141013551Y-100120172D02*
X141061171Y-100167791D01*
X141061171Y-100167791D02*
X141108790Y-100263029D01*
X141108790Y-100263029D02*
X141108790Y-100453505D01*
X141108790Y-100453505D02*
X141061171Y-100548743D01*
X141061171Y-100548743D02*
X141013551Y-100596362D01*
X141013551Y-100596362D02*
X140918313Y-100643981D01*
X140918313Y-100643981D02*
X140680218Y-100643981D01*
X140680218Y-100643981D02*
X140584980Y-100596362D01*
X140584980Y-100596362D02*
X140537361Y-100548743D01*
X140537361Y-100548743D02*
X140489742Y-100453505D01*
X140489742Y-100453505D02*
X140489742Y-100263029D01*
X140489742Y-100263029D02*
X140537361Y-100167791D01*
X140537361Y-100167791D02*
X140584980Y-100120172D01*
X140584980Y-100120172D02*
X140680218Y-100072553D01*
X140788790Y-103406362D02*
X139788790Y-103406362D01*
X140788790Y-103977790D02*
X140217361Y-103549219D01*
X139788790Y-103977790D02*
X140360218Y-103406362D01*
X179208790Y-80070172D02*
X178208790Y-80070172D01*
X178208790Y-80070172D02*
X178208790Y-80308267D01*
X178208790Y-80308267D02*
X178256409Y-80451124D01*
X178256409Y-80451124D02*
X178351647Y-80546362D01*
X178351647Y-80546362D02*
X178446885Y-80593981D01*
X178446885Y-80593981D02*
X178637361Y-80641600D01*
X178637361Y-80641600D02*
X178780218Y-80641600D01*
X178780218Y-80641600D02*
X178970694Y-80593981D01*
X178970694Y-80593981D02*
X179065932Y-80546362D01*
X179065932Y-80546362D02*
X179161171Y-80451124D01*
X179161171Y-80451124D02*
X179208790Y-80308267D01*
X179208790Y-80308267D02*
X179208790Y-80070172D01*
X178542123Y-81498743D02*
X179208790Y-81498743D01*
X178161171Y-81260648D02*
X178875456Y-81022553D01*
X178875456Y-81022553D02*
X178875456Y-81641600D01*
X178888790Y-84356362D02*
X177888790Y-84356362D01*
X178888790Y-84927790D02*
X178317361Y-84499219D01*
X177888790Y-84927790D02*
X178460218Y-84356362D01*
X179208790Y-117690981D02*
X178208790Y-117690981D01*
X178208790Y-117690981D02*
X178208790Y-117929076D01*
X178208790Y-117929076D02*
X178256409Y-118071933D01*
X178256409Y-118071933D02*
X178351647Y-118167171D01*
X178351647Y-118167171D02*
X178446885Y-118214790D01*
X178446885Y-118214790D02*
X178637361Y-118262409D01*
X178637361Y-118262409D02*
X178780218Y-118262409D01*
X178780218Y-118262409D02*
X178970694Y-118214790D01*
X178970694Y-118214790D02*
X179065932Y-118167171D01*
X179065932Y-118167171D02*
X179161171Y-118071933D01*
X179161171Y-118071933D02*
X179208790Y-117929076D01*
X179208790Y-117929076D02*
X179208790Y-117690981D01*
X179208790Y-119214790D02*
X179208790Y-118643362D01*
X179208790Y-118929076D02*
X178208790Y-118929076D01*
X178208790Y-118929076D02*
X178351647Y-118833838D01*
X178351647Y-118833838D02*
X178446885Y-118738600D01*
X178446885Y-118738600D02*
X178494504Y-118643362D01*
X178304028Y-119595743D02*
X178256409Y-119643362D01*
X178256409Y-119643362D02*
X178208790Y-119738600D01*
X178208790Y-119738600D02*
X178208790Y-119976695D01*
X178208790Y-119976695D02*
X178256409Y-120071933D01*
X178256409Y-120071933D02*
X178304028Y-120119552D01*
X178304028Y-120119552D02*
X178399266Y-120167171D01*
X178399266Y-120167171D02*
X178494504Y-120167171D01*
X178494504Y-120167171D02*
X178637361Y-120119552D01*
X178637361Y-120119552D02*
X179208790Y-119548124D01*
X179208790Y-119548124D02*
X179208790Y-120167171D01*
X178888790Y-122453362D02*
X177888790Y-122453362D01*
X178888790Y-123024790D02*
X178317361Y-122596219D01*
X177888790Y-123024790D02*
X178460218Y-122453362D01*
X178648790Y-98905172D02*
X177648790Y-98905172D01*
X177648790Y-98905172D02*
X177648790Y-99143267D01*
X177648790Y-99143267D02*
X177696409Y-99286124D01*
X177696409Y-99286124D02*
X177791647Y-99381362D01*
X177791647Y-99381362D02*
X177886885Y-99428981D01*
X177886885Y-99428981D02*
X178077361Y-99476600D01*
X178077361Y-99476600D02*
X178220218Y-99476600D01*
X178220218Y-99476600D02*
X178410694Y-99428981D01*
X178410694Y-99428981D02*
X178505932Y-99381362D01*
X178505932Y-99381362D02*
X178601171Y-99286124D01*
X178601171Y-99286124D02*
X178648790Y-99143267D01*
X178648790Y-99143267D02*
X178648790Y-98905172D01*
X178077361Y-100048029D02*
X178029742Y-99952791D01*
X178029742Y-99952791D02*
X177982123Y-99905172D01*
X177982123Y-99905172D02*
X177886885Y-99857553D01*
X177886885Y-99857553D02*
X177839266Y-99857553D01*
X177839266Y-99857553D02*
X177744028Y-99905172D01*
X177744028Y-99905172D02*
X177696409Y-99952791D01*
X177696409Y-99952791D02*
X177648790Y-100048029D01*
X177648790Y-100048029D02*
X177648790Y-100238505D01*
X177648790Y-100238505D02*
X177696409Y-100333743D01*
X177696409Y-100333743D02*
X177744028Y-100381362D01*
X177744028Y-100381362D02*
X177839266Y-100428981D01*
X177839266Y-100428981D02*
X177886885Y-100428981D01*
X177886885Y-100428981D02*
X177982123Y-100381362D01*
X177982123Y-100381362D02*
X178029742Y-100333743D01*
X178029742Y-100333743D02*
X178077361Y-100238505D01*
X178077361Y-100238505D02*
X178077361Y-100048029D01*
X178077361Y-100048029D02*
X178124980Y-99952791D01*
X178124980Y-99952791D02*
X178172599Y-99905172D01*
X178172599Y-99905172D02*
X178267837Y-99857553D01*
X178267837Y-99857553D02*
X178458313Y-99857553D01*
X178458313Y-99857553D02*
X178553551Y-99905172D01*
X178553551Y-99905172D02*
X178601171Y-99952791D01*
X178601171Y-99952791D02*
X178648790Y-100048029D01*
X178648790Y-100048029D02*
X178648790Y-100238505D01*
X178648790Y-100238505D02*
X178601171Y-100333743D01*
X178601171Y-100333743D02*
X178553551Y-100381362D01*
X178553551Y-100381362D02*
X178458313Y-100428981D01*
X178458313Y-100428981D02*
X178267837Y-100428981D01*
X178267837Y-100428981D02*
X178172599Y-100381362D01*
X178172599Y-100381362D02*
X178124980Y-100333743D01*
X178124980Y-100333743D02*
X178077361Y-100238505D01*
X178328790Y-103191362D02*
X177328790Y-103191362D01*
X178328790Y-103762790D02*
X177757361Y-103334219D01*
X177328790Y-103762790D02*
X177900218Y-103191362D01*
D12*
%TO.C,D11*%
X156461571Y-116785267D02*
X156461571Y-121025267D01*
X156461571Y-120185267D02*
X158701571Y-120185267D01*
X156461571Y-120305267D02*
X158701571Y-120305267D01*
X156461571Y-120425267D02*
X158701571Y-120425267D01*
X156461571Y-121025267D02*
X158701571Y-121025267D01*
X157581571Y-116785267D02*
X157581571Y-116135266D01*
X157581571Y-121025268D02*
X157581571Y-121675267D01*
X158701571Y-116785267D02*
X156461571Y-116785267D01*
X158701571Y-121025267D02*
X158701571Y-116785267D01*
%TO.C,D1*%
X118362371Y-78686067D02*
X118362371Y-82926067D01*
X118362371Y-82086067D02*
X120602371Y-82086067D01*
X118362371Y-82206067D02*
X120602371Y-82206067D01*
X118362371Y-82326067D02*
X120602371Y-82326067D01*
X118362371Y-82926067D02*
X120602371Y-82926067D01*
X119482371Y-78686067D02*
X119482371Y-78036066D01*
X119482371Y-82926068D02*
X119482371Y-83576067D01*
X120602371Y-78686067D02*
X118362371Y-78686067D01*
X120602371Y-82926067D02*
X120602371Y-78686067D01*
%TO.C,D7*%
X156463971Y-97738267D02*
X156463971Y-101978267D01*
X156463971Y-101138267D02*
X158703971Y-101138267D01*
X156463971Y-101258267D02*
X158703971Y-101258267D01*
X156463971Y-101378267D02*
X158703971Y-101378267D01*
X156463971Y-101978267D02*
X158703971Y-101978267D01*
X157583971Y-97738267D02*
X157583971Y-97088266D01*
X157583971Y-101978268D02*
X157583971Y-102628267D01*
X158703971Y-97738267D02*
X156463971Y-97738267D01*
X158703971Y-101978267D02*
X158703971Y-97738267D01*
D13*
%TO.C,U1*%
X177651471Y-94188267D02*
X177651471Y-108158267D01*
X196701471Y-92283267D02*
X179556471Y-92283267D01*
X196701471Y-110063267D02*
X179556471Y-110063267D01*
D14*
X198606471Y-108158266D02*
X198606471Y-94188268D01*
D13*
X198606471Y-108158266D02*
X198606471Y-94188268D01*
X198606472Y-96669267D02*
X199516471Y-96669267D01*
X199516743Y-105664539D02*
X198606472Y-105668267D01*
X200016472Y-97169267D02*
X200016472Y-105164539D01*
X177651471Y-94188267D02*
G75*
G02*
X179556471Y-92283267I1905000J0D01*
G01*
X179556471Y-110063267D02*
G75*
G02*
X177651471Y-108158267I1J1905001D01*
G01*
X196701471Y-92283267D02*
G75*
G02*
X198606471Y-94188268I0J-1905000D01*
G01*
X198606471Y-108158266D02*
G75*
G02*
X196701471Y-110063267I-1905001J0D01*
G01*
X199516471Y-96669267D02*
G75*
G02*
X200016471Y-97169267I0J-500000D01*
G01*
X200016472Y-105164539D02*
G75*
G02*
X199516743Y-105664539I-500017J17D01*
G01*
D15*
X197737471Y-108980268D02*
G75*
G02*
X197233471Y-108980268I-252000J0D01*
G01*
X197233471Y-108980268D02*
G75*
G02*
X197737471Y-108980268I252000J0D01*
G01*
X198617471Y-110123267D02*
G75*
G02*
X198113471Y-110123267I-252000J0D01*
G01*
X198113471Y-110123267D02*
G75*
G02*
X198617471Y-110123267I252000J0D01*
G01*
D12*
%TO.C,D2*%
X137411971Y-78686067D02*
X137411971Y-82926067D01*
X137411971Y-82086067D02*
X139651971Y-82086067D01*
X137411971Y-82206067D02*
X139651971Y-82206067D01*
X137411971Y-82326067D02*
X139651971Y-82326067D01*
X137411971Y-82926067D02*
X139651971Y-82926067D01*
X138531971Y-78686067D02*
X138531971Y-78036066D01*
X138531971Y-82926068D02*
X138531971Y-83576067D01*
X139651971Y-78686067D02*
X137411971Y-78686067D01*
X139651971Y-82926067D02*
X139651971Y-78686067D01*
%TO.C,D3*%
X156461571Y-78686067D02*
X156461571Y-82926067D01*
X156461571Y-82086067D02*
X158701571Y-82086067D01*
X156461571Y-82206067D02*
X158701571Y-82206067D01*
X156461571Y-82326067D02*
X158701571Y-82326067D01*
X156461571Y-82926067D02*
X158701571Y-82926067D01*
X157581571Y-78686067D02*
X157581571Y-78036066D01*
X157581571Y-82926068D02*
X157581571Y-83576067D01*
X158701571Y-78686067D02*
X156461571Y-78686067D01*
X158701571Y-82926067D02*
X158701571Y-78686067D01*
%TO.C,D10*%
X137411971Y-116785267D02*
X137411971Y-121025267D01*
X137411971Y-120185267D02*
X139651971Y-120185267D01*
X137411971Y-120305267D02*
X139651971Y-120305267D01*
X137411971Y-120425267D02*
X139651971Y-120425267D01*
X137411971Y-121025267D02*
X139651971Y-121025267D01*
X138531971Y-116785267D02*
X138531971Y-116135266D01*
X138531971Y-121025268D02*
X138531971Y-121675267D01*
X139651971Y-116785267D02*
X137411971Y-116785267D01*
X139651971Y-121025267D02*
X139651971Y-116785267D01*
%TO.C,D5*%
X118363971Y-97738267D02*
X118363971Y-101978267D01*
X118363971Y-101138267D02*
X120603971Y-101138267D01*
X118363971Y-101258267D02*
X120603971Y-101258267D01*
X118363971Y-101378267D02*
X120603971Y-101378267D01*
X118363971Y-101978267D02*
X120603971Y-101978267D01*
X119483971Y-97738267D02*
X119483971Y-97088266D01*
X119483971Y-101978268D02*
X119483971Y-102628267D01*
X120603971Y-97738267D02*
X118363971Y-97738267D01*
X120603971Y-101978267D02*
X120603971Y-97738267D01*
%TO.C,D9*%
X118362371Y-116785267D02*
X118362371Y-121025267D01*
X118362371Y-120185267D02*
X120602371Y-120185267D01*
X118362371Y-120305267D02*
X120602371Y-120305267D01*
X118362371Y-120425267D02*
X120602371Y-120425267D01*
X118362371Y-121025267D02*
X120602371Y-121025267D01*
X119482371Y-116785267D02*
X119482371Y-116135266D01*
X119482371Y-121025268D02*
X119482371Y-121675267D01*
X120602371Y-116785267D02*
X118362371Y-116785267D01*
X120602371Y-121025267D02*
X120602371Y-116785267D01*
%TO.C,D6*%
X137413971Y-97738267D02*
X137413971Y-101978267D01*
X137413971Y-101138267D02*
X139653971Y-101138267D01*
X137413971Y-101258267D02*
X139653971Y-101258267D01*
X137413971Y-101378267D02*
X139653971Y-101378267D01*
X137413971Y-101978267D02*
X139653971Y-101978267D01*
X138533971Y-97738267D02*
X138533971Y-97088266D01*
X138533971Y-101978268D02*
X138533971Y-102628267D01*
X139653971Y-97738267D02*
X137413971Y-97738267D01*
X139653971Y-101978267D02*
X139653971Y-97738267D01*
%TO.C,D4*%
X175513971Y-78688267D02*
X175513971Y-82928267D01*
X175513971Y-82088267D02*
X177753971Y-82088267D01*
X175513971Y-82208267D02*
X177753971Y-82208267D01*
X175513971Y-82328267D02*
X177753971Y-82328267D01*
X175513971Y-82928267D02*
X177753971Y-82928267D01*
X176633971Y-78688267D02*
X176633971Y-78038266D01*
X176633971Y-82928268D02*
X176633971Y-83578267D01*
X177753971Y-78688267D02*
X175513971Y-78688267D01*
X177753971Y-82928267D02*
X177753971Y-78688267D01*
%TO.C,D12*%
X175513971Y-116785267D02*
X175513971Y-121025267D01*
X175513971Y-120185267D02*
X177753971Y-120185267D01*
X175513971Y-120305267D02*
X177753971Y-120305267D01*
X175513971Y-120425267D02*
X177753971Y-120425267D01*
X175513971Y-121025267D02*
X177753971Y-121025267D01*
X176633971Y-116785267D02*
X176633971Y-116135266D01*
X176633971Y-121025268D02*
X176633971Y-121675267D01*
X177753971Y-116785267D02*
X175513971Y-116785267D01*
X177753971Y-121025267D02*
X177753971Y-116785267D01*
%TO.C,D8*%
X174953971Y-97523267D02*
X174953971Y-101763267D01*
X174953971Y-100923267D02*
X177193971Y-100923267D01*
X174953971Y-101043267D02*
X177193971Y-101043267D01*
X174953971Y-101163267D02*
X177193971Y-101163267D01*
X174953971Y-101763267D02*
X177193971Y-101763267D01*
X176073971Y-97523267D02*
X176073971Y-96873266D01*
X176073971Y-101763268D02*
X176073971Y-102413267D01*
X177193971Y-97523267D02*
X174953971Y-97523267D01*
X177193971Y-101763267D02*
X177193971Y-97523267D01*
%TD*%
M02*
